<svg width="89" height="92" viewBox="0 0 89 92" fill="none" xmlns="http://www.w3.org/2000/svg">
<path d="M3 45C3 22.3563 21.3563 4 44 4V4C66.6437 4 85 22.3563 85 45V45C85 67.6437 66.6437 86 44 86V86C21.3563 86 3 67.6437 3 45V45Z" fill="white"/>
<path d="M3.5 85.5L14 65.5L33 80L4 86.5L3.5 85.5Z" fill="white"/>
<path d="M59.0925 46.0791L59.094 46.0803L66.5243 51.672C66.5245 51.6721 66.5247 51.6723 66.5249 51.6724C67.2412 52.2137 67.7196 52.9826 67.8579 53.8715C67.9984 54.775 67.7838 55.6712 67.2669 56.3987L67.265 56.4014L64.9433 59.69L64.9426 59.6909C63.0659 62.3551 60.1284 63.9 57.0756 63.9H56.871C51.6676 63.7802 45.2147 61.1799 37.6295 55.9406L37.5264 55.8693L37.4099 55.8231C37.3854 55.8134 37.3636 55.8028 37.3455 55.7923C37.3273 55.7818 37.3166 55.7737 37.3122 55.7699L37.3093 55.7675C37.2079 55.6825 37.1057 55.6027 37.0198 55.5357L37.0142 55.5313C36.9222 55.4594 36.8477 55.401 36.7777 55.3425L36.7317 55.3039L36.6818 55.2706C36.5234 55.165 36.3617 55.0477 36.1797 54.9153C36.1068 54.858 36.0704 54.8201 36.0433 54.786L35.9696 54.6931L35.8778 54.6181C28.7197 48.7673 24.3365 43.213 22.6421 38.1204C21.5871 34.9488 22.0991 31.356 23.9391 28.7563L23.9399 28.7552L26.2607 25.4681C26.2608 25.4679 26.2609 25.4677 26.2611 25.4675C27.3187 23.9752 29.338 23.6625 30.7661 24.7378L30.7662 24.7378L38.3268 30.4304C38.327 30.4305 38.3272 30.4306 38.3274 30.4308C39.0221 30.9557 39.4855 31.7366 39.6279 32.6523C39.7684 33.5553 39.5541 34.4511 39.0378 35.1784C39.0375 35.1787 39.0373 35.1791 39.037 35.1794L37.7445 36.9893C37.6476 37.119 37.3713 37.5115 37.0979 37.9427C36.9532 38.1709 36.8001 38.4244 36.6703 38.6666C36.5527 38.8864 36.4096 39.1775 36.3392 39.457C36.0442 40.627 36.3627 41.8683 37.2821 42.8613C37.3765 42.9632 37.457 43.0553 37.5341 43.1434C37.7689 43.4119 37.9713 43.6433 38.4328 44.0021C38.9832 44.4299 40.0144 45.1393 42.3524 46.7444L42.7477 47.0399C47.3015 50.7912 49.7043 51.1862 50.882 50.9965L50.8838 50.9962C51.5448 50.8886 52.0419 50.5516 52.2502 50.122L52.2724 50.0762C52.2773 50.0694 52.2822 50.0626 52.287 50.0559L52.2879 50.0546L54.588 46.8108L54.5921 46.8049C55.0968 46.0832 55.8439 45.6148 56.6915 45.4829L56.6915 45.4829L56.7018 45.4812C57.5488 45.3412 58.3954 45.5526 59.0925 46.0791ZM51.8858 50.4449L51.8874 50.4439C51.8856 50.445 51.8842 50.4459 51.8847 50.4456L51.8858 50.4449Z" stroke="#231B1A" stroke-width="2.2"/>
</svg>
