<svg width="44" height="43" viewBox="0 0 44 43" fill="none" xmlns="http://www.w3.org/2000/svg">
<path d="M21.832 42.6102C10.188 42.6102 0.713379 33.1369 0.713379 21.4916C0.713379 9.84623 10.188 0.372896 21.832 0.372896C33.476 0.372896 42.9507 9.84623 42.9507 21.4916C42.9507 33.1369 33.476 42.6102 21.832 42.6102Z" fill="white"/>
<g style="mix-blend-mode:darken">
<mask id="mask0_2_19600" style="mask-type:luminance" maskUnits="userSpaceOnUse" x="0" y="0" width="43" height="43">
<path d="M0.713379 42.6104H42.9493V0.372964H0.713379V42.6104Z" fill="white"/>
</mask>
<g mask="url(#mask0_2_19600)">
<path d="M21.832 1.33484C10.7174 1.33484 1.67471 10.3775 1.67471 21.4908C1.67471 32.6055 10.7174 41.6482 21.832 41.6482C32.9454 41.6482 41.988 32.6055 41.988 21.4908C41.988 10.3775 32.9454 1.33484 21.832 1.33484ZM21.832 42.6108C10.188 42.6108 0.713379 33.1362 0.713379 21.4908C0.713379 9.84684 10.188 0.373503 21.832 0.373503C33.476 0.373503 42.9507 9.84684 42.9507 21.4908C42.9507 33.1362 33.476 42.6108 21.832 42.6108Z" fill="#5C3E32"/>
</g>
</g>
<g style="mix-blend-mode:darken">
<mask id="mask1_2_19600" style="mask-type:luminance" maskUnits="userSpaceOnUse" x="0" y="0" width="44" height="43">
<path d="M0.597412 42.7263H43.0695V0.256997H0.597412V42.7263Z" fill="white"/>
</mask>
<g mask="url(#mask1_2_19600)">
<path d="M21.8322 1.45141C10.7815 1.45141 1.79086 10.4407 1.79086 21.4914C1.79086 32.5421 10.7815 41.5314 21.8322 41.5314C32.8815 41.5314 41.8709 32.5421 41.8709 21.4914C41.8709 10.4407 32.8815 1.45141 21.8322 1.45141ZM21.8322 41.7648C10.6535 41.7648 1.55752 32.6701 1.55752 21.4914C1.55752 10.3127 10.6535 1.21808 21.8322 1.21808C33.0095 1.21808 42.1042 10.3127 42.1042 21.4914C42.1042 32.6701 33.0095 41.7648 21.8322 41.7648ZM21.8322 0.488748C10.2509 0.488748 0.829525 9.91141 0.829525 21.4914C0.829525 33.0727 10.2509 42.4941 21.8322 42.4941C33.4135 42.4941 42.8335 33.0727 42.8335 21.4914C42.8335 9.91141 33.4135 0.488748 21.8322 0.488748ZM21.8322 42.7274C10.1229 42.7274 0.596191 33.2007 0.596191 21.4914C0.596191 9.78208 10.1229 0.256748 21.8322 0.256748C33.5415 0.256748 43.0669 9.78208 43.0669 21.4914C43.0669 33.2007 33.5415 42.7274 21.8322 42.7274Z" fill="#5C3E32"/>
</g>
</g>
<g style="mix-blend-mode:multiply">
<mask id="mask2_2_19600" style="mask-type:luminance" maskUnits="userSpaceOnUse" x="8" y="22" width="18" height="10">
<path d="M8.08276 31.6274H25.9627V22.8368H8.08276V31.6274Z" fill="white"/>
</mask>
<g mask="url(#mask2_2_19600)">
<path d="M24.8152 30.4728H9.44991C9.35658 30.1008 9.25391 29.4021 9.23525 29.1968C9.21658 28.6848 9.30058 27.9488 9.86858 27.3808C10.4086 26.8408 11.1912 26.5621 11.9352 26.6448C12.5779 26.7101 13.1272 27.0368 13.4632 27.5581C13.6406 27.8181 13.9939 27.9021 14.2646 27.7261C14.5246 27.5488 14.5992 27.1954 14.4312 26.9248C14.0032 26.2728 13.3792 25.8168 12.6339 25.6114C12.8766 25.2768 13.2019 25.0154 13.6032 24.8474C14.4032 24.5128 15.4472 24.5688 16.3686 24.9968C16.7139 25.1741 16.9832 24.9408 17.0672 24.8661C17.2072 24.7461 17.5326 24.4568 17.6072 24.4101C17.8312 24.2608 18.0726 24.1501 18.3339 24.0848C18.6966 23.9821 19.0792 23.9634 19.4419 24.0194C19.5726 24.0381 19.7019 24.0754 19.8326 24.1128C20.8206 24.4474 21.4166 25.2488 21.4446 26.2354C21.0246 26.2448 20.6059 26.2914 20.2059 26.3848C19.1072 26.6354 18.2686 27.1861 17.7939 27.9581C17.6259 28.2288 17.7099 28.5821 17.9792 28.7501C18.2499 28.9181 18.6032 28.8434 18.7712 28.5634C19.0792 28.0608 19.6846 27.6888 20.4566 27.5114C21.5552 27.2594 22.8592 27.4274 23.6419 27.9208C24.5166 28.4608 24.8152 29.5328 24.8152 30.4634V30.4728ZM25.9512 30.1101C25.8766 28.9461 25.4019 27.6608 24.2566 26.9434C23.7912 26.6541 23.2232 26.4408 22.6086 26.3288C22.6179 24.9128 21.7979 23.6834 20.4659 23.1248C20.3819 23.0874 20.2899 23.0501 20.1966 23.0221C19.8886 22.9208 19.5726 22.8648 19.2459 22.8461C18.8366 22.8181 18.4179 22.8554 18.0259 22.9674C17.6539 23.0688 17.3006 23.2274 16.9739 23.4421C16.9272 23.4701 16.8712 23.5168 16.5272 23.8141C15.3912 23.3768 14.1526 23.3674 13.1459 23.7861C12.3552 24.1221 11.7499 24.7088 11.3859 25.4901C10.5112 25.5554 9.67258 25.9381 9.04858 26.5714C8.35925 27.2594 8.03391 28.1914 8.08991 29.2621C8.14591 30.3421 8.36858 31.6274 9.11391 31.6274H25.3646C25.5606 31.6274 25.7366 31.5248 25.8486 31.3674C25.8952 31.2928 25.9232 31.2088 25.9326 31.1154C25.9699 30.8088 25.9792 30.4634 25.9512 30.1101Z" fill="#5C3E32"/>
</g>
</g>
<g style="mix-blend-mode:multiply">
<mask id="mask3_2_19600" style="mask-type:luminance" maskUnits="userSpaceOnUse" x="19" y="9" width="17" height="25">
<path d="M19.2427 33.0249H35.5759V9.95695H19.2427V33.0249Z" fill="white"/>
</mask>
<g mask="url(#mask3_2_19600)">
<path d="M34.3794 12.4713L31.0634 17.3887L29.9088 16.7647L32.1821 11.2887C32.2274 11.186 32.3114 11.1487 32.3581 11.13C32.3954 11.1113 32.4888 11.0927 32.5914 11.1487L34.2768 12.0527C34.3701 12.1087 34.4074 12.1927 34.4168 12.238C34.4354 12.2847 34.4448 12.378 34.3794 12.4713ZM35.5434 11.9593C35.4408 11.5687 35.1808 11.2327 34.8168 11.0367L33.1408 10.134C32.7781 9.93799 32.3488 9.90066 31.9674 10.0407C31.5861 10.1807 31.2688 10.4687 31.1194 10.8513L28.8848 16.2153L26.7154 15.042C25.9701 14.6407 25.0301 14.8553 24.5354 15.5447L19.2461 22.846C19.5728 22.8647 19.8888 22.9207 20.1968 23.022C20.2888 23.05 20.3821 23.0873 20.4661 23.1247L25.4674 16.2247C25.6261 16.0007 25.9328 15.926 26.1661 16.0567L28.9034 17.5287L30.9808 18.646L33.7088 20.1167C33.9514 20.2473 34.0621 20.5367 33.9608 20.7873L29.9368 31.4873C29.8714 31.646 29.7514 31.7767 29.5834 31.8327C29.4248 31.898 29.2474 31.8793 29.0901 31.8047L25.9514 30.11C25.9794 30.4633 25.9701 30.8073 25.9328 31.1153C25.9234 31.2087 25.8954 31.2927 25.8488 31.3673L28.5501 32.8193C28.8008 32.95 29.0901 33.0247 29.3781 33.0247C29.5834 33.0247 29.7888 32.9873 29.9928 32.9127C30.4594 32.7353 30.8314 32.3633 31.0181 31.8887L35.0408 21.198C35.3381 20.406 35.0034 19.502 34.2581 19.102L32.0888 17.938L35.3381 13.1233C35.5621 12.7793 35.6368 12.3593 35.5434 11.9593Z" fill="#5C3E32"/>
</g>
</g>
<g style="mix-blend-mode:multiply">
<mask id="mask4_2_19600" style="mask-type:luminance" maskUnits="userSpaceOnUse" x="26" y="21" width="5" height="8">
<path d="M26.9495 28.0796H30.8429V21.8503H26.9495V28.0796Z" fill="white"/>
</mask>
<g mask="url(#mask4_2_19600)">
<path d="M27.5289 28.0793C27.4369 28.0793 27.3436 28.0567 27.2556 28.01C26.9756 27.8593 26.8703 27.51 27.0223 27.2287L29.7529 22.1527C29.9023 21.8727 30.2529 21.7687 30.5343 21.918C30.8143 22.0687 30.9196 22.4193 30.7676 22.7007L28.0369 27.7753C27.9343 27.97 27.7343 28.0793 27.5289 28.0793Z" fill="#007A72"/>
</g>
</g>
<g style="mix-blend-mode:multiply">
<mask id="mask5_2_19600" style="mask-type:luminance" maskUnits="userSpaceOnUse" x="24" y="20" width="5" height="7">
<path d="M24.9229 26.9197H28.8028V20.6903H24.9229V26.9197Z" fill="white"/>
</mask>
<g mask="url(#mask5_2_19600)">
<path d="M25.4999 26.9197C25.4079 26.9197 25.3146 26.897 25.2266 26.8503C24.9466 26.6997 24.8412 26.3503 24.9932 26.069L27.7239 20.993C27.8732 20.7143 28.2252 20.609 28.5052 20.7583C28.7852 20.909 28.8906 21.2597 28.7386 21.541L26.0079 26.6157C25.9052 26.8103 25.7052 26.9197 25.4999 26.9197Z" fill="#007A72"/>
</g>
</g>
<g style="mix-blend-mode:multiply">
<mask id="mask6_2_19600" style="mask-type:luminance" maskUnits="userSpaceOnUse" x="22" y="19" width="5" height="7">
<path d="M22.9094 25.8063H26.7894V19.5769H22.9094V25.8063Z" fill="white"/>
</mask>
<g mask="url(#mask6_2_19600)">
<path d="M23.4806 25.8062C23.3886 25.8062 23.2953 25.7835 23.2073 25.7368C22.9273 25.5862 22.8219 25.2368 22.9739 24.9555L25.7046 19.8808C25.8553 19.6008 26.2046 19.4955 26.4859 19.6462C26.7659 19.7968 26.8713 20.1475 26.7193 20.4275L23.9886 25.5022C23.8859 25.6968 23.6859 25.8062 23.4806 25.8062Z" fill="#007A72"/>
</g>
</g>
</svg>
