<svg width="44" height="43" viewBox="0 0 44 43" fill="none" xmlns="http://www.w3.org/2000/svg">
<path d="M22.1836 42.3507C10.5383 42.3507 1.06494 32.8774 1.06494 21.232C1.06494 9.58804 10.5383 0.113374 22.1836 0.113374C33.8276 0.113374 43.3009 9.58804 43.3009 21.232C43.3009 32.8774 33.8276 42.3507 22.1836 42.3507Z" fill="white"/>
<g style="mix-blend-mode:darken">
<mask id="mask0_2_19502" style="mask-type:luminance" maskUnits="userSpaceOnUse" x="1" y="0" width="43" height="43">
<path d="M1.06421 42.3503H43.3015V0.112954H1.06421V42.3503Z" fill="white"/>
</mask>
<g mask="url(#mask0_2_19502)">
<path d="M22.1836 1.07532C11.0689 1.07532 2.02627 10.118 2.02627 21.2327C2.02627 32.3473 11.0689 41.39 22.1836 41.39C33.2983 41.39 42.3396 32.3473 42.3396 21.2327C42.3396 10.118 33.2983 1.07532 22.1836 1.07532ZM22.1836 42.3513C10.5383 42.3513 1.06494 32.8767 1.06494 21.2327C1.06494 9.58865 10.5383 0.113982 22.1836 0.113982C33.8276 0.113982 43.3009 9.58865 43.3009 21.2327C43.3009 32.8767 33.8276 42.3513 22.1836 42.3513Z" fill="#5C3E32"/>
</g>
</g>
<g style="mix-blend-mode:darken">
<mask id="mask1_2_19502" style="mask-type:luminance" maskUnits="userSpaceOnUse" x="0" y="-1" width="44" height="44">
<path d="M0.947998 42.4677H43.4173V-0.00305302H0.947998V42.4677Z" fill="white"/>
</mask>
<g mask="url(#mask1_2_19502)">
<path d="M22.1835 1.19226C11.1328 1.19226 2.14218 10.1816 2.14218 21.2323C2.14218 32.2829 11.1328 41.2736 22.1835 41.2736C33.2328 41.2736 42.2235 32.2829 42.2235 21.2323C42.2235 10.1816 33.2328 1.19226 22.1835 1.19226ZM22.1835 41.5069C11.0048 41.5069 1.90884 32.4109 1.90884 21.2323C1.90884 10.0536 11.0048 0.958927 22.1835 0.958927C33.3608 0.958927 42.4555 10.0536 42.4555 21.2323C42.4555 32.4109 33.3608 41.5069 22.1835 41.5069ZM22.1835 0.229593C10.6022 0.229593 1.18084 9.65226 1.18084 21.2323C1.18084 32.8136 10.6022 42.2349 22.1835 42.2349C33.7635 42.2349 43.1835 32.8136 43.1835 21.2323C43.1835 9.65226 33.7635 0.229593 22.1835 0.229593ZM22.1835 42.4683C10.4742 42.4683 0.94751 32.9416 0.94751 21.2323C0.94751 9.52293 10.4742 -0.00240707 22.1835 -0.00240707C33.8915 -0.00240707 43.4168 9.52293 43.4168 21.2323C43.4168 32.9416 33.8915 42.4683 22.1835 42.4683Z" fill="#5C3E32"/>
</g>
</g>
<g style="mix-blend-mode:multiply">
<mask id="mask2_2_19502" style="mask-type:luminance" maskUnits="userSpaceOnUse" x="6" y="18" width="7" height="7">
<path d="M6.82544 24.2234H12.3801V18.6688H6.82544V24.2234Z" fill="white"/>
</mask>
<g mask="url(#mask2_2_19502)">
<path d="M9.60238 19.8242C8.75971 19.8242 8.04638 20.4749 7.98504 21.3269C7.91971 22.2202 8.59171 23.0002 9.48504 23.0656C10.373 23.1336 11.1557 22.4576 11.221 21.5656C11.2864 20.6722 10.6144 19.8936 9.72104 19.8282C9.68104 19.8242 9.64104 19.8242 9.60238 19.8242ZM9.60504 24.2242C9.53704 24.2242 9.46904 24.2216 9.40104 24.2162C7.87304 24.1042 6.72238 22.7709 6.83304 21.2442C6.88771 20.5042 7.22771 19.8296 7.78771 19.3442C8.34904 18.8602 9.06638 18.6216 9.80504 18.6776C11.3317 18.7896 12.4837 20.1216 12.373 21.6482C12.265 23.1069 11.045 24.2242 9.60504 24.2242Z" fill="#5C3E32"/>
</g>
</g>
<g style="mix-blend-mode:multiply">
<mask id="mask3_2_19502" style="mask-type:luminance" maskUnits="userSpaceOnUse" x="22" y="29" width="6" height="7">
<path d="M22.2561 35.1077H27.8108V29.5544H22.2561V35.1077Z" fill="white"/>
</mask>
<g mask="url(#mask3_2_19502)">
<path d="M25.0325 30.7074C24.1912 30.7074 23.4779 31.3608 23.4152 32.2128C23.3832 32.6448 23.5219 33.0634 23.8045 33.3928C24.0885 33.7194 24.4819 33.9181 24.9152 33.9488C25.8125 34.0168 26.5872 33.3408 26.6525 32.4488C26.6832 32.0168 26.5445 31.5981 26.2619 31.2701C25.9779 30.9421 25.5832 30.7434 25.1512 30.7114C25.1112 30.7088 25.0712 30.7074 25.0325 30.7074ZM25.0352 35.1074C24.9672 35.1074 24.8992 35.1048 24.8299 35.1008C24.0912 35.0461 23.4165 34.7074 22.9325 34.1461C22.4472 33.5848 22.2099 32.8674 22.2645 32.1288C22.3752 30.6008 23.7165 29.4594 25.2352 29.5608C26.7632 29.6728 27.9139 31.0061 27.8032 32.5341C27.6965 33.9914 26.4752 35.1074 25.0352 35.1074Z" fill="#007A72"/>
</g>
</g>
<g style="mix-blend-mode:multiply">
<mask id="mask4_2_19502" style="mask-type:luminance" maskUnits="userSpaceOnUse" x="11" y="30" width="6" height="7">
<path d="M11.3801 36.2128H16.9334V30.6582H11.3801V36.2128Z" fill="white"/>
</mask>
<g mask="url(#mask4_2_19502)">
<path d="M14.1561 31.8129C13.3148 31.8129 12.6014 32.4649 12.5387 33.3182C12.5067 33.7502 12.6454 34.1676 12.9281 34.4969C13.2121 34.8249 13.6068 35.0236 14.0388 35.0542C14.4681 35.0862 14.8894 34.9476 15.2174 34.6649C15.5468 34.3809 15.7441 33.9862 15.7761 33.5542C15.8414 32.6609 15.1681 31.8822 14.2748 31.8169C14.2348 31.8142 14.1948 31.8129 14.1561 31.8129ZM14.1614 36.2129C14.0921 36.2129 14.0241 36.2102 13.9548 36.2062C13.2148 36.1516 12.5401 35.8129 12.0561 35.2516C11.5707 34.6902 11.3334 33.9729 11.3881 33.2329C11.5001 31.7062 12.8361 30.5502 14.3601 30.6662C15.8868 30.7782 17.0388 32.1116 16.9268 33.6382C16.8721 34.3782 16.5334 35.0529 15.9721 35.5382C15.4641 35.9769 14.8281 36.2129 14.1614 36.2129Z" fill="#5C3E32"/>
</g>
</g>
<g style="mix-blend-mode:multiply">
<mask id="mask5_2_19502" style="mask-type:luminance" maskUnits="userSpaceOnUse" x="12" y="24" width="4" height="4">
<path d="M12.0562 27.9983H15.9841V24.0717H12.0562V27.9983Z" fill="white"/>
</mask>
<g mask="url(#mask5_2_19502)">
<path d="M14.0194 25.2251C13.5994 25.2251 13.2434 25.5504 13.2128 25.9757C13.1968 26.1917 13.2661 26.3997 13.4074 26.5637C13.5488 26.7277 13.7461 26.8264 13.9608 26.8424C14.4101 26.8771 14.7954 26.5384 14.8274 26.0944C14.8608 25.6491 14.5248 25.2611 14.0794 25.2264C14.0594 25.2264 14.0394 25.2251 14.0194 25.2251ZM14.0221 27.9984C13.9741 27.9984 13.9261 27.9971 13.8768 27.9931C13.3541 27.9544 12.8768 27.7157 12.5341 27.3184C12.1914 26.9224 12.0234 26.4157 12.0621 25.8917C12.1408 24.8131 13.0861 24.0037 14.1634 24.0771C15.2434 24.1557 16.0568 25.0984 15.9794 26.1771C15.9034 27.2091 15.0408 27.9984 14.0221 27.9984Z" fill="#007A72"/>
</g>
</g>
<g style="mix-blend-mode:multiply">
<mask id="mask6_2_19502" style="mask-type:luminance" maskUnits="userSpaceOnUse" x="31" y="18" width="7" height="7">
<path d="M31.6174 24.5396H37.8067V18.3529H31.6174V24.5396Z" fill="white"/>
</mask>
<g mask="url(#mask6_2_19502)">
<path d="M34.7091 19.5065C34.2438 19.5065 33.7998 19.6718 33.4438 19.9785C33.0518 20.3171 32.8144 20.7878 32.7771 21.3051C32.6998 22.3718 33.5038 23.3038 34.5704 23.3811C35.6411 23.4505 36.5691 22.6545 36.6464 21.5878C36.7251 20.5211 35.9211 19.5891 34.8531 19.5118C34.8051 19.5078 34.7571 19.5065 34.7091 19.5065ZM34.7131 24.5398C34.6384 24.5398 34.5624 24.5385 34.4864 24.5318C32.7851 24.4078 31.5024 22.9225 31.6264 21.2211C31.6878 20.3971 32.0638 19.6451 32.6904 19.1051C33.3144 18.5651 34.1184 18.3025 34.9384 18.3611C36.6384 18.4851 37.9224 19.9705 37.7984 21.6718C37.6784 23.2971 36.3184 24.5398 34.7131 24.5398Z" fill="#007A72"/>
</g>
</g>
<g style="mix-blend-mode:multiply">
<mask id="mask7_2_19502" style="mask-type:luminance" maskUnits="userSpaceOnUse" x="27" y="25" width="5" height="5">
<path d="M27.1987 29.8503H31.1254V25.925H27.1987V29.8503Z" fill="white"/>
</mask>
<g mask="url(#mask7_2_19502)">
<path d="M29.1617 27.0776C28.7417 27.0776 28.3857 27.403 28.3537 27.8283C28.3231 28.2736 28.6577 28.6616 29.1031 28.695C29.5631 28.731 29.9377 28.3923 29.9697 27.947C29.9857 27.731 29.9164 27.5216 29.7751 27.3576C29.6337 27.1936 29.4377 27.095 29.2217 27.079C29.2017 27.079 29.1817 27.0776 29.1617 27.0776ZM29.1631 29.851C29.1164 29.851 29.0671 29.8496 29.0191 29.8456C27.9404 29.7656 27.1244 28.8243 27.2044 27.7443C27.2831 26.6643 28.2244 25.859 29.3057 25.9296C29.8284 25.9683 30.3057 26.207 30.6484 26.6043C30.9911 27.0003 31.1591 27.507 31.1204 28.031C31.0444 29.0616 30.1817 29.851 29.1631 29.851Z" fill="#5C3E32"/>
</g>
</g>
<g style="mix-blend-mode:multiply">
<mask id="mask8_2_19502" style="mask-type:luminance" maskUnits="userSpaceOnUse" x="30" y="31" width="5" height="5">
<path d="M30.0986 35.1488H34.0253V31.2208H30.0986V35.1488Z" fill="white"/>
</mask>
<g mask="url(#mask8_2_19502)">
<path d="M32.0625 32.3751C31.6425 32.3751 31.2852 32.7004 31.2545 33.1258C31.2385 33.3418 31.3078 33.5498 31.4492 33.7138C31.5905 33.8778 31.7878 33.9764 32.0025 33.9911C32.2212 34.0098 32.4278 33.9391 32.5905 33.7978C32.7545 33.6564 32.8532 33.4591 32.8692 33.2444C32.9025 32.7991 32.5665 32.4098 32.1212 32.3764C32.1012 32.3751 32.0812 32.3751 32.0625 32.3751ZM32.0665 35.1484C32.0172 35.1484 31.9678 35.1471 31.9185 35.1431C31.3958 35.1044 30.9198 34.8644 30.5758 34.4684C30.2332 34.0711 30.0652 33.5644 30.1038 33.0418C30.1825 31.9631 31.1372 31.1444 32.2052 31.2258C33.2852 31.3044 34.0985 32.2471 34.0212 33.3271C33.9825 33.8511 33.7425 34.3284 33.3452 34.6711C32.9865 34.9804 32.5358 35.1484 32.0665 35.1484Z" fill="#5C3E32"/>
</g>
</g>
<g style="mix-blend-mode:multiply">
<mask id="mask9_2_19502" style="mask-type:luminance" maskUnits="userSpaceOnUse" x="32" y="25" width="7" height="7">
<path d="M32.5654 31.0543H38.0028V25.6156H32.5654V31.0543Z" fill="white"/>
</mask>
<g mask="url(#mask9_2_19502)">
<path d="M35.2826 26.7709C34.4719 26.7709 33.7839 27.3989 33.7239 28.2216C33.6599 29.0816 34.3092 29.8323 35.1706 29.8949C36.0399 29.9696 36.7812 29.3096 36.8439 28.4496C36.8746 28.0323 36.7412 27.6283 36.4679 27.3123C36.1959 26.9963 35.8159 26.8056 35.3986 26.7749C35.3599 26.7723 35.3212 26.7709 35.2826 26.7709ZM35.2866 31.0536C35.2199 31.0536 35.1532 31.0523 35.0866 31.0469C33.5906 30.9363 32.4639 29.6323 32.5732 28.1376C32.6826 26.6416 33.9812 25.5149 35.4826 25.6243C36.2066 25.6763 36.8666 26.0083 37.3412 26.5576C37.8159 27.1069 38.0479 27.8096 37.9959 28.5323C37.8906 29.9603 36.6959 31.0536 35.2866 31.0536Z" fill="#5C3E32"/>
</g>
</g>
<g style="mix-blend-mode:multiply">
<mask id="mask10_2_19502" style="mask-type:luminance" maskUnits="userSpaceOnUse" x="6" y="25" width="6" height="7">
<path d="M6.36279 31.2927H11.8V25.8568H6.36279V31.2927Z" fill="white"/>
</mask>
<g mask="url(#mask10_2_19502)">
<path d="M9.08063 27.0103C8.26997 27.0103 7.58063 27.6383 7.52197 28.4596C7.4913 28.877 7.62463 29.2823 7.89797 29.597C8.1713 29.9143 8.5513 30.105 8.9673 30.1343C9.3873 30.1676 9.78863 30.033 10.1046 29.7583C10.4206 29.4863 10.6113 29.105 10.642 28.689C10.6726 28.2716 10.5393 27.869 10.266 27.5516C9.99263 27.2356 9.61263 27.045 9.19663 27.0143C9.15663 27.0116 9.1193 27.0103 9.08063 27.0103ZM9.08597 31.293C9.01797 31.293 8.9513 31.2903 8.8833 31.2863C8.1593 31.233 7.4993 30.901 7.02463 30.3516C6.54997 29.8023 6.31797 29.101 6.36997 28.377C6.4793 26.8823 7.78197 25.7583 9.2793 25.8636C10.0046 25.917 10.6646 26.249 11.1393 26.7983C11.614 27.3476 11.846 28.049 11.7926 28.773C11.7406 29.497 11.4073 30.157 10.858 30.6316C10.3606 31.061 9.73663 31.293 9.08597 31.293Z" fill="#5C3E32"/>
</g>
</g>
<g style="mix-blend-mode:multiply">
<mask id="mask11_2_19502" style="mask-type:luminance" maskUnits="userSpaceOnUse" x="16" y="27" width="5" height="5">
<path d="M16.7454 31.7155H20.6733V27.7902H16.7454V31.7155Z" fill="white"/>
</mask>
<g mask="url(#mask11_2_19502)">
<path d="M18.7082 28.9426C18.2882 28.9426 17.9322 29.2679 17.9015 29.6933C17.8695 30.1386 18.2055 30.5279 18.6509 30.5599C19.1029 30.5919 19.4842 30.2559 19.5162 29.8119C19.5495 29.3666 19.2135 28.9786 18.7682 28.9453C18.7482 28.9439 18.7282 28.9426 18.7082 28.9426ZM18.7109 31.7159C18.6629 31.7159 18.6149 31.7146 18.5669 31.7106C17.4869 31.6306 16.6722 30.6893 16.7509 29.6093C16.8295 28.5306 17.7762 27.7213 18.8522 27.7946C19.9322 27.8733 20.7455 28.8159 20.6682 29.8946C20.5922 30.9266 19.7282 31.7159 18.7109 31.7159Z" fill="#5C3E32"/>
</g>
</g>
<g style="mix-blend-mode:multiply">
<mask id="mask12_2_19502" style="mask-type:luminance" maskUnits="userSpaceOnUse" x="15" y="5" width="15" height="22">
<path d="M15.1853 26.2316H29.1654V5.86487H15.1853V26.2316Z" fill="white"/>
</mask>
<g mask="url(#mask12_2_19502)">
<path d="M22.1699 7.43545L21.9192 7.82212C21.4126 8.60212 20.9059 9.38079 20.4126 10.1688C19.6579 11.3768 18.8512 12.6755 18.0859 13.9781C17.3366 15.2528 16.8632 16.3301 16.5966 17.3675C16.2859 18.5701 16.2579 19.6395 16.5086 20.6355C16.8406 21.9528 17.5139 22.9941 18.5632 23.8168C19.9712 24.9208 21.5912 25.3008 23.3752 24.9488C24.6232 24.7035 25.6926 24.0768 26.5552 23.0901C27.5166 21.9888 27.9926 20.7261 28.0112 19.2288C28.0046 18.6061 27.9126 17.9661 27.7246 17.2728C27.5419 16.5968 27.2766 15.9208 26.9352 15.2621L26.7299 14.8621C26.5139 14.4408 26.2992 14.0208 26.0592 13.6141C25.5579 12.7595 25.0192 11.8808 24.4139 10.9235C23.7552 9.88612 23.0872 8.85412 22.4192 7.82212L22.1699 7.43545ZM22.0979 26.2328C20.5526 26.2328 19.1299 25.7288 17.8512 24.7248C16.6099 23.7528 15.7819 22.4701 15.3899 20.9168C15.0899 19.7301 15.1192 18.4741 15.4792 17.0795C15.7739 15.9355 16.2859 14.7648 17.0912 13.3941C17.8632 12.0781 18.6752 10.7728 19.4352 9.55679C19.9326 8.76345 20.4419 7.97812 20.9512 7.19279L21.5352 6.29412C21.6312 6.14479 21.8099 5.86612 22.1699 5.86612C22.5286 5.86612 22.7059 6.13946 22.8006 6.28612L23.3886 7.19412C24.0579 8.23012 24.7286 9.26479 25.3886 10.3061C26.0006 11.2728 26.5459 12.1635 27.0539 13.0275C27.3046 13.4555 27.5312 13.8955 27.7566 14.3368L27.9592 14.7315C28.3392 15.4635 28.6352 16.2168 28.8392 16.9728C29.0512 17.7648 29.1592 18.5021 29.1659 19.2248V19.2368C29.1446 20.9981 28.5579 22.5501 27.4246 23.8475C26.3899 25.0328 25.1032 25.7835 23.5992 26.0808C23.0872 26.1821 22.5859 26.2328 22.0979 26.2328Z" fill="#5C3E32"/>
</g>
</g>
<g style="mix-blend-mode:multiply">
<mask id="mask13_2_19502" style="mask-type:luminance" maskUnits="userSpaceOnUse" x="18" y="13" width="3" height="11">
<path d="M18.668 23.1956H20.9493V13.9743H18.668V23.1956Z" fill="white"/>
</mask>
<g mask="url(#mask13_2_19502)">
<path d="M19.8464 23.1956C19.733 23.1956 19.621 23.1636 19.521 23.0956C19.2584 22.9156 19.1904 22.5556 19.3704 22.2929C20.0864 21.2462 19.7877 19.9916 19.2704 19.1649C18.8904 18.5596 18.6824 17.8182 18.669 17.0262C18.6557 16.1542 18.877 15.2382 19.3264 14.3022C19.465 14.0142 19.809 13.8929 20.097 14.0316C20.3837 14.1702 20.505 14.5156 20.3664 14.8022C19.9944 15.5756 19.8117 16.3169 19.8224 17.0076C19.833 17.5889 19.9784 18.1236 20.2477 18.5529C21.1557 20.0009 21.185 21.6836 20.3237 22.9436C20.2117 23.1076 20.0304 23.1956 19.8464 23.1956Z" fill="#007A72"/>
</g>
</g>
<g style="mix-blend-mode:multiply">
<mask id="mask14_2_19502" style="mask-type:luminance" maskUnits="userSpaceOnUse" x="21" y="13" width="3" height="11">
<path d="M21.0361 23.1956H23.3175V13.9743H21.0361V23.1956Z" fill="white"/>
</mask>
<g mask="url(#mask14_2_19502)">
<path d="M22.2143 23.1956C22.1009 23.1956 21.9889 23.1636 21.8889 23.0956C21.6263 22.9156 21.5583 22.5556 21.7383 22.2929C22.4543 21.2462 22.1556 19.9916 21.6383 19.1649C21.2569 18.5582 21.0489 17.8182 21.0369 17.0262C21.0236 16.1542 21.2449 15.2382 21.6943 14.3022C21.8329 14.0142 22.1756 13.8929 22.4649 14.0316C22.7516 14.1702 22.8729 14.5156 22.7343 14.8022C22.3623 15.5756 22.1796 16.3169 22.1916 17.0076C22.1996 17.5889 22.3463 18.1236 22.6156 18.5529C23.5236 20.0009 23.5529 21.6836 22.6916 22.9436C22.5796 23.1076 22.3983 23.1956 22.2143 23.1956Z" fill="#007A72"/>
</g>
</g>
<g style="mix-blend-mode:multiply">
<mask id="mask15_2_19502" style="mask-type:luminance" maskUnits="userSpaceOnUse" x="23" y="13" width="3" height="11">
<path d="M23.332 23.1956H25.612V13.9743H23.332V23.1956Z" fill="white"/>
</mask>
<g mask="url(#mask15_2_19502)">
<path d="M24.5094 23.1956C24.3961 23.1956 24.2841 23.1636 24.1841 23.0956C23.9214 22.9156 23.8534 22.5556 24.0334 22.2929C24.7494 21.2462 24.4508 19.9916 23.9334 19.1649C23.5521 18.5582 23.3441 17.8182 23.3321 17.0262C23.3188 16.1542 23.5401 15.2382 23.9894 14.3022C24.1281 14.0142 24.4708 13.8929 24.7601 14.0316C25.0468 14.1702 25.1681 14.5156 25.0294 14.8022C24.6574 15.5756 24.4748 16.3169 24.4854 17.0076C24.4961 17.5889 24.6414 18.1236 24.9108 18.5529C25.8188 20.0009 25.8481 21.6836 24.9868 22.9436C24.8748 23.1076 24.6934 23.1956 24.5094 23.1956Z" fill="#007A72"/>
</g>
</g>
</svg>
