<svg width="44" height="44" viewBox="0 0 44 44" fill="none" xmlns="http://www.w3.org/2000/svg">
<path d="M21.8374 43.2958C10.1921 43.2958 0.71875 33.8224 0.71875 22.1771C0.71875 10.5331 10.1921 1.05844 21.8374 1.05844C33.4814 1.05844 42.9561 10.5331 42.9561 22.1771C42.9561 33.8224 33.4814 43.2958 21.8374 43.2958Z" fill="white"/>
<g style="mix-blend-mode:darken">
<mask id="mask0_2_19644" style="mask-type:luminance" maskUnits="userSpaceOnUse" x="0" y="1" width="43" height="43">
<path d="M0.71875 43.2955H42.9494V1.05823H0.71875V43.2955Z" fill="white"/>
</mask>
<g mask="url(#mask0_2_19644)">
<path d="M21.8374 2.02026C10.7227 2.02026 1.68008 11.0629 1.68008 22.1776C1.68008 33.2923 10.7227 42.3349 21.8374 42.3349C32.9521 42.3349 41.9934 33.2923 41.9934 22.1776C41.9934 11.0629 32.9521 2.02026 21.8374 2.02026ZM21.8374 43.2963C10.1921 43.2963 0.71875 33.8216 0.71875 22.1776C0.71875 10.5336 10.1921 1.05893 21.8374 1.05893C33.4814 1.05893 42.9561 10.5336 42.9561 22.1776C42.9561 33.8216 33.4814 43.2963 21.8374 43.2963Z" fill="#5C3E32"/>
</g>
</g>
<g style="mix-blend-mode:darken">
<mask id="mask1_2_19644" style="mask-type:luminance" maskUnits="userSpaceOnUse" x="0" y="0" width="44" height="44">
<path d="M0.601318 43.413H43.0694V0.942259H0.601318V43.413Z" fill="white"/>
</mask>
<g mask="url(#mask1_2_19644)">
<path d="M21.8376 2.13684C10.7869 2.13684 1.79623 11.1262 1.79623 22.1768C1.79623 33.2275 10.7869 42.2182 21.8376 42.2182C32.8869 42.2182 41.8776 33.2275 41.8776 22.1768C41.8776 11.1262 32.8869 2.13684 21.8376 2.13684ZM21.8376 42.4515C10.6589 42.4515 1.5629 33.3555 1.5629 22.1768C1.5629 10.9982 10.6589 1.90351 21.8376 1.90351C33.0149 1.90351 42.1096 10.9982 42.1096 22.1768C42.1096 33.3555 33.0149 42.4515 21.8376 42.4515ZM21.8376 1.17417C10.2562 1.17417 0.833562 10.5968 0.833562 22.1768C0.833562 33.7582 10.2562 43.1795 21.8376 43.1795C33.4189 43.1795 42.8389 33.7582 42.8389 22.1768C42.8389 10.5968 33.4189 1.17417 21.8376 1.17417ZM21.8376 43.4128C10.1282 43.4128 0.601562 33.8862 0.601562 22.1768C0.601562 10.4688 10.1282 0.942173 21.8376 0.942173C33.5469 0.942173 43.0722 10.4688 43.0722 22.1768C43.0722 33.8862 33.5469 43.4128 21.8376 43.4128Z" fill="#5C3E32"/>
</g>
</g>
<g style="mix-blend-mode:multiply">
<mask id="mask2_2_19644" style="mask-type:luminance" maskUnits="userSpaceOnUse" x="13" y="30" width="3" height="7">
<path d="M13.136 36.2994H15.8027V30.4421H13.136V36.2994Z" fill="white"/>
</mask>
<g mask="url(#mask2_2_19644)">
<path d="M15.0929 30.656C15.3169 30.8894 15.5583 31.112 15.8009 31.308C14.6743 33.832 14.3383 35.7507 14.3289 35.796C14.2729 36.0854 14.0223 36.3 13.7329 36.3C13.7049 36.3 13.6676 36.2907 13.6396 36.2907C13.3143 36.2347 13.0903 35.9267 13.1463 35.6014C13.1556 35.5454 13.5476 33.3014 14.8969 30.4414C14.9623 30.516 15.0276 30.5907 15.0929 30.656Z" fill="#007A72"/>
</g>
</g>
<g style="mix-blend-mode:multiply">
<mask id="mask3_2_19644" style="mask-type:luminance" maskUnits="userSpaceOnUse" x="16" y="17" width="12" height="4">
<path d="M16.1628 20.0582H27.4295V17.2408H16.1628V20.0582Z" fill="white"/>
</mask>
<g mask="url(#mask3_2_19644)">
<path d="M16.1641 19.5181C17.1134 18.6794 18.1387 18.0368 19.1627 17.5434C18.1201 18.0288 17.0947 18.6608 16.1641 19.5181ZM17.3654 20.0581C17.7187 19.7701 18.0827 19.5088 18.4547 19.2754C18.0827 19.4994 17.7187 19.7608 17.3654 20.0581ZM21.0161 18.0741C22.6734 17.5248 24.3121 17.3301 25.6534 17.2928C25.8774 17.2928 26.0907 17.2834 26.3147 17.2834C26.6867 17.2834 27.0601 17.2928 27.4321 17.3114C27.2187 17.2834 24.2467 16.9381 21.0161 18.0741ZM21.0161 18.0741C22.6734 17.5248 24.3121 17.3301 25.6534 17.2928C25.8774 17.2928 26.0907 17.2834 26.3147 17.2834C26.6867 17.2834 27.0601 17.2928 27.4321 17.3114C27.2187 17.2834 24.2467 16.9381 21.0161 18.0741ZM17.3654 20.0581C17.7187 19.7701 18.0827 19.5088 18.4547 19.2754C18.0827 19.4994 17.7187 19.7608 17.3654 20.0581ZM17.3654 20.0581C17.7187 19.7701 18.0827 19.5088 18.4547 19.2754C18.0827 19.4994 17.7187 19.7608 17.3654 20.0581ZM21.0161 18.0741C22.6734 17.5248 24.3121 17.3301 25.6534 17.2928C25.8774 17.2928 26.0907 17.2834 26.3147 17.2834C26.6867 17.2834 27.0601 17.2928 27.4321 17.3114C27.2187 17.2834 24.2467 16.9381 21.0161 18.0741Z" fill="#231F20"/>
</g>
</g>
<g style="mix-blend-mode:multiply">
<mask id="mask4_2_19644" style="mask-type:luminance" maskUnits="userSpaceOnUse" x="12" y="8" width="23" height="26">
<path d="M12.696 33.0116H34.0561V8.0623H12.696V33.0116Z" fill="white"/>
</mask>
<g mask="url(#mask4_2_19644)">
<path d="M30.971 20.0023C30.859 20.1236 30.775 20.2356 30.7096 20.3009C29.4616 21.6596 28.3723 23.1036 27.4883 24.5836C27.0696 25.3009 26.7056 26.0556 26.3523 26.7823C25.867 27.7969 25.4016 28.7556 24.787 29.6316C23.3723 31.6249 21.183 32.2863 18.623 31.4943C17.7936 31.2329 17.011 30.7956 16.3403 30.1903C16.2016 30.0783 16.071 29.9569 15.9496 29.8276C15.7816 29.6503 15.6243 29.4729 15.475 29.2783C14.9163 28.5423 14.5056 27.6943 14.311 26.8009C13.9016 24.9196 14.4883 23.0663 16.0616 21.3063C16.0896 21.2783 16.1176 21.2503 16.1456 21.2129C16.3496 20.9889 16.5643 20.7756 16.807 20.5516C16.9923 20.3836 17.1696 20.2076 17.3656 20.0583C17.719 19.7596 18.0816 19.4996 18.455 19.2756C18.6416 19.1556 18.827 19.0436 19.0136 18.9503C19.3016 18.7916 19.5816 18.6516 19.8696 18.5223C20.019 18.4476 20.159 18.3916 20.3083 18.3356C20.5496 18.2329 20.783 18.1489 21.0163 18.0743C24.247 16.9383 27.2176 17.2836 27.4323 17.3116C27.4603 17.3116 27.4883 17.3209 27.5163 17.3209C29.3136 17.4036 31.083 17.6929 32.7403 18.1676C32.0696 18.7263 31.3896 19.5183 30.971 20.0023ZM17.291 15.4209C17.971 15.0103 23.511 11.6863 25.551 9.5996C26.315 10.6809 27.7856 13.2409 27.0696 16.0823C26.1376 16.0263 24.0523 16.0076 21.6856 16.6409C21.5376 16.6783 21.379 16.7249 21.2296 16.7703C21.0896 16.8076 20.951 16.8543 20.8016 16.9009C20.6056 16.9663 20.4016 17.0409 20.2056 17.1063C19.8616 17.2369 19.5163 17.3849 19.163 17.5436C18.1376 18.0369 17.1136 18.6796 16.1643 19.5183C15.6523 19.9743 15.1576 20.4863 14.7016 21.0636C14.599 21.1849 14.515 21.3063 14.423 21.4276C14.2643 21.6316 14.115 21.8369 13.975 22.0609C13.6683 20.5703 13.771 17.8703 17.291 15.4209ZM34.035 17.9156C33.9603 17.5156 33.6803 17.1996 33.2896 17.0876C31.707 16.6129 30.003 16.3049 28.2696 16.1649C29.2483 11.9009 26.1563 8.4076 26.0163 8.2596C25.895 8.1196 25.719 8.05426 25.5323 8.0636C25.355 8.07293 25.1883 8.16626 25.0856 8.3156C24.0616 9.80493 18.6683 13.2036 16.639 14.4143C10.995 18.3543 12.979 23.0943 13.2776 23.7183C12.9323 24.8076 12.895 25.9156 13.147 27.0516C13.4163 28.2996 14.0216 29.4729 14.8976 30.4423C14.963 30.5156 15.0283 30.5903 15.0923 30.6556C15.3163 30.8889 15.559 31.1129 15.8003 31.3076C16.5363 31.9036 17.375 32.3596 18.2683 32.6303C19.0883 32.8823 19.8803 33.0116 20.643 33.0116C22.711 33.0116 24.5083 32.0903 25.7563 30.3209C26.4363 29.3609 26.9483 28.3183 27.4323 27.3036C27.767 26.5956 28.1216 25.8689 28.5216 25.1983C29.3603 23.7836 30.3936 22.4049 31.5856 21.1103C31.6603 21.0356 31.7536 20.9249 31.8736 20.7849C32.303 20.2916 33.0203 19.4623 33.6443 18.9689C33.9603 18.7169 34.119 18.3169 34.035 17.9156Z" fill="#5C3E32"/>
</g>
</g>
<g style="mix-blend-mode:multiply">
<mask id="mask5_2_19644" style="mask-type:luminance" maskUnits="userSpaceOnUse" x="15" y="18" width="14" height="13">
<path d="M15.4695 30.1902H28.1095V18.8275H15.4695V30.1902Z" fill="white"/>
</mask>
<g mask="url(#mask5_2_19644)">
<path d="M27.6835 20.3468C24.1075 21.4641 21.4621 23.4201 19.5168 25.5615C23.0928 24.6868 25.3275 25.5988 25.4395 25.6455C25.7368 25.7668 25.8861 26.1201 25.7555 26.4281C25.6248 26.7255 25.2808 26.8748 24.9728 26.7441C24.9541 26.7348 24.0608 26.3908 22.5248 26.3908C21.3781 26.3908 19.8981 26.5775 18.1475 27.2481C17.4208 28.2441 16.8248 29.2401 16.3408 30.1908C16.2008 30.0788 16.0701 29.9575 15.9501 29.8268C15.7821 29.6508 15.6235 29.4735 15.4741 29.2775C15.9408 28.4028 16.4901 27.4988 17.1701 26.5868C17.1701 26.5775 17.1701 26.5588 17.1875 26.5495C17.2435 26.4655 17.3088 26.3721 17.3835 26.2881C18.5195 24.7615 19.9635 23.2708 21.7608 21.9761C22.2635 20.5895 22.1981 19.4815 22.1981 19.4721C22.1701 19.1455 22.4221 18.8575 22.7475 18.8295C23.0741 18.8108 23.3621 19.0521 23.3901 19.3788C23.3901 19.4161 23.4368 20.0588 23.2688 20.9988C24.4795 20.2908 25.8301 19.6855 27.3301 19.2108C27.6368 19.1081 27.9715 19.2855 28.0741 19.6015C28.1768 19.9188 27.9995 20.2535 27.6835 20.3468Z" fill="#007A72"/>
</g>
</g>
</svg>
