<svg width="64" height="64" viewBox="0 0 64 64" fill="none" xmlns="http://www.w3.org/2000/svg">
<g style="mix-blend-mode:multiply">
<mask id="mask0_4_19957" style="mask-type:luminance" maskUnits="userSpaceOnUse" x="4" y="11" width="56" height="40">
<path d="M4.41675 50.9999H59.6722V11.9999H4.41675V50.9999Z" fill="white"/>
</mask>
<g mask="url(#mask0_4_19957)">
<path d="M21.3896 31.51L8.06849 44.737V18.2663L21.3896 31.51ZM23.9974 34.1066L26.1899 36.2881C27.7568 37.8494 29.8275 38.702 32.031 38.702C34.2346 38.702 36.3109 37.8494 37.8722 36.2936L40.0702 34.1066L53.3748 47.3281H10.6873L23.9974 34.1066ZM35.27 33.6859C34.4118 34.5551 33.2602 35.0313 32.031 35.0313C30.8074 35.0313 29.6558 34.5551 28.7866 33.6859C28.4212 33.3204 13.5719 18.5542 10.6818 15.6752H53.3803C51.6363 17.4137 45.0753 23.9358 40.3471 28.6364L35.27 33.6859ZM55.9936 18.2663V44.737L42.678 31.51L55.9936 18.2663ZM54.6205 11.9989H9.44158C6.66219 11.9989 4.39771 14.2689 4.39771 17.0538V45.955C4.39771 48.74 6.66219 50.9989 9.44158 50.9989H54.6205C57.4054 50.9989 59.6644 48.74 59.6644 45.955V17.0538C59.6644 14.2689 57.4054 11.9989 54.6205 11.9989Z" fill="#5C3E32"/>
</g>
</g>
</svg>
