<svg width="64" height="64" viewBox="0 0 64 64" fill="none" xmlns="http://www.w3.org/2000/svg">
<g style="mix-blend-mode:multiply">
<mask id="mask0_4_19956" style="mask-type:luminance" maskUnits="userSpaceOnUse" x="9" y="9" width="46" height="47">
<path d="M9.12219 55.0055H55V9.12214H9.12219V55.0055Z" fill="white"/>
</mask>
<g mask="url(#mask0_4_19956)">
<path d="M32.0827 50.8757V50.8926C35.4136 50.8926 38.7389 50.8926 42.0698 50.8982C43.0899 50.8982 44.0875 50.7911 45.0626 50.4642C48.3935 49.3539 50.9635 46.1583 50.9354 42.0834C50.8959 35.399 50.9241 28.7033 50.9241 22.019C50.9241 21.0157 50.8114 20.0294 50.4901 19.0713C49.3854 15.7291 46.1729 13.1703 42.1149 13.1929C35.4249 13.2379 28.7348 13.2098 22.0505 13.2098C21.0472 13.2098 20.0609 13.3225 19.0971 13.6381C15.7888 14.7371 13.1962 17.9328 13.2244 22.019C13.2694 28.709 13.2356 35.399 13.2356 42.0834C13.2356 43.2275 13.4047 44.3378 13.8049 45.4143C14.949 48.5085 18.0714 50.8137 21.3798 50.8644C24.9474 50.9151 28.515 50.8757 32.0827 50.8757ZM55.0102 20.6776V43.4304C54.9821 43.5826 54.9595 43.746 54.9201 43.8982C54.6157 45.0367 54.4635 46.2372 53.9788 47.2855C51.668 52.2509 47.7397 54.9055 42.2389 54.9675C35.4643 55.0407 28.6841 54.99 21.9039 54.9731C21.0472 54.9675 20.1736 54.8998 19.3339 54.7308C13.3765 53.5246 9.16638 48.3902 9.15511 42.3201C9.1382 35.4666 9.14383 28.6188 9.16074 21.7653C9.16638 20.9481 9.2171 20.114 9.40309 19.3249C10.581 14.2017 13.7203 10.9215 18.7815 9.49559C19.4071 9.32087 20.0666 9.24197 20.7034 9.12361H43.4563C43.9128 9.20251 44.375 9.25887 44.8146 9.36032C49.9321 10.5664 53.218 13.6945 54.6383 18.7557C54.813 19.3813 54.8919 20.0351 55.0102 20.6776Z" fill="#5C3E32"/>
<path d="M39.8075 32.0554C39.8131 27.772 36.3582 24.3227 32.0748 24.3227C27.8026 24.334 24.3759 27.7494 24.359 32.0216C24.3308 36.305 27.7744 39.7656 32.0691 39.7768C36.3469 39.7881 39.8018 36.3445 39.8075 32.0554ZM43.8993 32.061C43.8936 38.5651 38.5844 43.8743 32.0804 43.8743C25.5595 43.8686 20.239 38.5369 20.2615 32.016C20.2841 25.5119 25.6045 20.214 32.1086 20.2309C38.6126 20.2478 43.9105 25.5626 43.8993 32.061Z" fill="#5C3E32"/>
<path d="M44.4066 22.744C42.7552 22.7496 41.4026 21.4083 41.4082 19.7625C41.4082 18.1337 42.7891 16.7585 44.4123 16.7754C46.0298 16.7979 47.3712 18.1281 47.3881 19.7456C47.4106 21.3744 46.0523 22.7384 44.4066 22.744Z" fill="#5C3E32"/>
</g>
</g>
</svg>
