<svg width="43" height="44" viewBox="0 0 43 44" fill="none" xmlns="http://www.w3.org/2000/svg">
<path d="M21.4739 43.2958C9.82856 43.2958 0.355225 33.8224 0.355225 22.1771C0.355225 10.5331 9.82856 1.05978 21.4739 1.05978C33.1179 1.05978 42.5926 10.5331 42.5926 22.1771C42.5926 33.8224 33.1179 43.2958 21.4739 43.2958Z" fill="white"/>
<g style="mix-blend-mode:darken">
<mask id="mask0_2_19464" style="mask-type:luminance" maskUnits="userSpaceOnUse" x="0" y="1" width="43" height="43">
<path d="M0.354736 43.2954H42.5921V1.05941H0.354736V43.2954Z" fill="white"/>
</mask>
<g mask="url(#mask0_2_19464)">
<path d="M21.4739 2.00995C10.3539 2.00995 1.30589 11.058 1.30589 22.178C1.30589 33.298 10.3539 42.3446 21.4739 42.3446C32.5939 42.3446 41.6406 33.298 41.6406 22.178C41.6406 11.058 32.5939 2.00995 21.4739 2.00995ZM21.4739 43.2953C9.82856 43.2953 0.355225 33.822 0.355225 22.178C0.355225 10.5326 9.82856 1.05929 21.4739 1.05929C33.1179 1.05929 42.5926 10.5326 42.5926 22.178C42.5926 33.822 33.1179 43.2953 21.4739 43.2953Z" fill="#5C3E32"/>
</g>
</g>
<g style="mix-blend-mode:darken">
<mask id="mask1_2_19464" style="mask-type:luminance" maskUnits="userSpaceOnUse" x="0" y="0" width="43" height="44">
<path d="M0.23877 43.413H42.7081V0.942259H0.23877V43.413Z" fill="white"/>
</mask>
<g mask="url(#mask1_2_19464)">
<path d="M21.4738 2.12677C10.4165 2.12677 1.42179 11.1214 1.42179 22.1774C1.42179 33.2334 10.4165 42.2281 21.4738 42.2281C32.5298 42.2281 41.5245 33.2334 41.5245 22.1774C41.5245 11.1214 32.5298 2.12677 21.4738 2.12677ZM21.4738 42.4614C10.2885 42.4614 1.18846 33.3614 1.18846 22.1774C1.18846 10.9934 10.2885 1.89344 21.4738 1.89344C32.6578 1.89344 41.7578 10.9934 41.7578 22.1774C41.7578 33.3614 32.6578 42.4614 21.4738 42.4614ZM21.4738 1.17611C9.89246 1.17611 0.471127 10.5961 0.471127 22.1774C0.471127 33.7574 9.89246 43.1801 21.4738 43.1801C33.0551 43.1801 42.4751 33.7574 42.4751 22.1774C42.4751 10.5961 33.0551 1.17611 21.4738 1.17611ZM21.4738 43.4121C9.76446 43.4121 0.237793 33.8868 0.237793 22.1774C0.237793 10.4681 9.76446 0.942773 21.4738 0.942773C33.1831 0.942773 42.7085 10.4681 42.7085 22.1774C42.7085 33.8868 33.1831 43.4121 21.4738 43.4121Z" fill="#5C3E32"/>
</g>
</g>
<g style="mix-blend-mode:multiply">
<mask id="mask2_2_19464" style="mask-type:luminance" maskUnits="userSpaceOnUse" x="8" y="16" width="20" height="20">
<path d="M8.09473 35.6797H27.0414V16.7343H8.09473V35.6797Z" fill="white"/>
</mask>
<g mask="url(#mask2_2_19464)">
<path d="M11.9041 26.2073C14.5254 27.1647 16.6107 29.2487 17.5667 31.8713C18.5241 29.2487 20.6081 27.1647 23.2307 26.2073C20.6081 25.2513 18.5241 23.166 17.5667 20.5447C16.6107 23.166 14.5254 25.2513 11.9041 26.2073ZM17.5667 35.6807C17.2521 35.6807 16.9974 35.4247 16.9974 35.11C16.9974 30.5153 13.2587 26.778 8.66539 26.778C8.35073 26.778 8.09473 26.522 8.09473 26.2073C8.09473 25.8927 8.35073 25.638 8.66539 25.638C13.2587 25.638 16.9974 21.8993 16.9974 17.3047C16.9974 16.99 17.2521 16.734 17.5667 16.734C17.8827 16.734 18.1374 16.99 18.1374 17.3047C18.1374 21.8993 21.8761 25.638 26.4694 25.638C26.7841 25.638 27.0414 25.8927 27.0414 26.2073C27.0414 26.522 26.7841 26.778 26.4694 26.778C21.8761 26.778 18.1374 30.5153 18.1374 35.11C18.1374 35.4247 17.8827 35.6807 17.5667 35.6807Z" fill="#5C3E32"/>
</g>
</g>
<g style="mix-blend-mode:multiply">
<mask id="mask3_2_19464" style="mask-type:luminance" maskUnits="userSpaceOnUse" x="21" y="8" width="14" height="15">
<path d="M21.6868 22.0874H34.8521V8.92342H21.6868V22.0874Z" fill="white"/>
</mask>
<g mask="url(#mask3_2_19464)">
<path d="M24.9374 15.5052C26.4161 16.1679 27.6081 17.3586 28.2694 18.8372C28.9321 17.3586 30.1228 16.1679 31.6014 15.5052C30.1228 14.8426 28.9321 13.6519 28.2694 12.1732C27.6081 13.6519 26.4161 14.8426 24.9374 15.5052ZM28.2694 22.0879C27.9548 22.0879 27.7001 21.8319 27.7001 21.5172C27.7001 18.5172 25.2574 16.0746 22.2574 16.0746C21.9428 16.0746 21.6868 15.8199 21.6868 15.5052C21.6868 15.1906 21.9428 14.9359 22.2574 14.9359C25.2574 14.9359 27.7001 12.4932 27.7001 9.49322C27.7001 9.17856 27.9548 8.92256 28.2694 8.92256C28.5841 8.92256 28.8401 9.17856 28.8401 9.49322C28.8401 12.4932 31.2814 14.9359 34.2814 14.9359C34.5961 14.9359 34.8521 15.1906 34.8521 15.5052C34.8521 15.8199 34.5961 16.0746 34.2814 16.0746C31.2814 16.0746 28.8401 18.5172 28.8401 21.5172C28.8401 21.8319 28.5841 22.0879 28.2694 22.0879Z" fill="#5C3E32"/>
</g>
</g>
<g style="mix-blend-mode:multiply">
<mask id="mask4_2_19464" style="mask-type:luminance" maskUnits="userSpaceOnUse" x="9" y="8" width="9" height="9">
<path d="M9.89868 16.6821H17.9067V8.67415H9.89868V16.6821Z" fill="white"/>
</mask>
<g mask="url(#mask4_2_19464)">
<path d="M12.5272 12.6786C13.0912 13.0173 13.5632 13.4906 13.9032 14.0546C14.2418 13.4906 14.7152 13.0173 15.2792 12.6786C14.7152 12.34 14.2418 11.8666 13.9032 11.3026C13.5632 11.8666 13.0912 12.34 12.5272 12.6786ZM13.9032 16.6826C13.5872 16.6826 13.3325 16.4266 13.3325 16.112C13.3325 14.5333 12.0485 13.248 10.4685 13.248C10.1538 13.248 9.89917 12.9933 9.89917 12.6786C9.89917 12.364 10.1538 12.108 10.4685 12.108C12.0485 12.108 13.3325 10.824 13.3325 9.24528C13.3325 8.93062 13.5872 8.67462 13.9032 8.67462C14.2178 8.67462 14.4738 8.93062 14.4738 9.24528C14.4738 10.824 15.7578 12.108 17.3365 12.108C17.6525 12.108 17.9072 12.364 17.9072 12.6786C17.9072 12.9933 17.6525 13.248 17.3365 13.248C15.7578 13.248 14.4738 14.5333 14.4738 16.112C14.4738 16.4266 14.2178 16.6826 13.9032 16.6826Z" fill="#007A72"/>
</g>
</g>
<g style="mix-blend-mode:multiply">
<mask id="mask5_2_19464" style="mask-type:luminance" maskUnits="userSpaceOnUse" x="25" y="27" width="9" height="9">
<path d="M25.9001 35.6809H33.9082V27.6715H25.9001V35.6809Z" fill="white"/>
</mask>
<g mask="url(#mask5_2_19464)">
<path d="M28.5279 31.6762C29.0919 32.0148 29.5639 32.4882 29.9039 33.0522C30.2426 32.4882 30.7159 32.0148 31.2799 31.6762C30.7159 31.3375 30.2426 30.8642 29.9039 30.3002C29.5639 30.8642 29.0919 31.3375 28.5279 31.6762ZM29.9039 35.6802C29.5892 35.6802 29.3332 35.4242 29.3332 35.1095C29.3332 33.5308 28.0492 32.2468 26.4692 32.2468C26.1546 32.2468 25.8999 31.9908 25.8999 31.6762C25.8999 31.3615 26.1546 31.1068 26.4692 31.1068C28.0492 31.1068 29.3332 29.8215 29.3332 28.2428C29.3332 27.9282 29.5892 27.6722 29.9039 27.6722C30.2186 27.6722 30.4746 27.9282 30.4746 28.2428C30.4746 29.8215 31.7586 31.1068 33.3372 31.1068C33.6532 31.1068 33.9079 31.3615 33.9079 31.6762C33.9079 31.9908 33.6532 32.2468 33.3372 32.2468C31.7586 32.2468 30.4746 33.5308 30.4746 35.1095C30.4746 35.4242 30.2186 35.6802 29.9039 35.6802Z" fill="#007A72"/>
</g>
</g>
</svg>
