<?xml version="1.0" encoding="UTF-8"?>
<svg xmlns="http://www.w3.org/2000/svg" xmlns:xlink="http://www.w3.org/1999/xlink" viewBox="0 0 43 44">
  <defs>
    <style>
      .cls-1 {
        clip-path: url(#clippath);
      }

      .cls-2 {
        fill: none;
      }

      .cls-2, .cls-3, .cls-4, .cls-5, .cls-6 {
        stroke-width: 0px;
      }

      .cls-3 {
        fill: #007a72;
      }

      .cls-7 {
        mask: url(#mask);
      }

      .cls-4 {
        fill: #5c3e32;
      }

      .cls-5 {
        fill: #5c3e32;
      }

      .cls-8 {
        mix-blend-mode: darken;
      }

      .cls-9 {
        isolation: isolate;
      }

      .cls-6 {
        fill: #fff;
      }

      .cls-10 {
        mask: url(#mask-1);
      }
    </style>
    <mask id="mask" x=".35" y="1.06" width="42.24" height="42.24" maskUnits="userSpaceOnUse">
      <g id="mask0_2_19464" data-name="mask0 2 19464">
        <path class="cls-6" d="M.35,43.3h42.24V1.06H.35v42.24Z"/>
      </g>
    </mask>
    <mask id="mask-1" x=".24" y=".94" width="42.47" height="42.47" maskUnits="userSpaceOnUse">
      <g id="mask1_2_19464" data-name="mask1 2 19464">
        <path class="cls-6" d="M.24,43.41h42.47V.94H.24v42.47Z"/>
      </g>
    </mask>
    <clipPath id="clippath">
      <rect class="cls-2" x="4.69" y="6.47" width="33.63" height="29.56"/>
    </clipPath>
  </defs>
  <g class="cls-9">
    <g id="Layer_1" data-name="Layer 1">
      <path class="cls-6" d="M21.47,43.3C9.83,43.3.36,33.82.36,22.18S9.83,1.06,21.47,1.06s21.12,9.47,21.12,21.12-9.47,21.12-21.12,21.12Z"/>
      <g class="cls-8">
        <g class="cls-7">
          <path class="cls-5" d="M21.47,2.01C10.35,2.01,1.31,11.06,1.31,22.18s9.05,20.17,20.17,20.17,20.17-9.05,20.17-20.17S32.59,2.01,21.47,2.01ZM21.47,43.3C9.83,43.3.36,33.82.36,22.18S9.83,1.06,21.47,1.06s21.12,9.47,21.12,21.12-9.47,21.12-21.12,21.12Z"/>
        </g>
      </g>
      <g class="cls-8">
        <g class="cls-10">
          <path class="cls-5" d="M21.47,2.13C10.42,2.13,1.42,11.12,1.42,22.18s8.99,20.05,20.05,20.05,20.05-8.99,20.05-20.05S32.53,2.13,21.47,2.13ZM21.47,42.46c-11.19,0-20.29-9.1-20.29-20.28S10.29,1.89,21.47,1.89s20.28,9.1,20.28,20.28-9.1,20.28-20.28,20.28ZM21.47,1.18C9.89,1.18.47,10.6.47,22.18s9.42,21,21,21,21-9.42,21-21S33.06,1.18,21.47,1.18ZM21.47,43.41C9.76,43.41.24,33.89.24,22.18S9.76.94,21.47.94s21.23,9.53,21.23,21.23-9.53,21.23-21.23,21.23Z"/>
        </g>
      </g>
      <g class="cls-1">
        <path class="cls-3" d="M17.36,28.52h.17c.26,0,.47-.25.47-.55s-.21-.55-.47-.55h-.11c-.26,0-.47.25-.47.55s.21.55.47.55"/>
        <path class="cls-3" d="M19.7,28.52h.06c.26,0,.47-.25.47-.55s-.21-.55-.47-.55h-.11c-.26,0-.47.25-.47.55s.21.55.47.55"/>
        <path class="cls-3" d="M15.17,28.52h.12c.26,0,.47-.25.47-.55s-.21-.55-.47-.55h-.11c-.26,0-.47.24-.47.55s.21.55.47.55"/>
        <path class="cls-3" d="M12.98,28.52h.07c.26,0,.47-.25.47-.55s-.21-.55-.47-.55h-.11c-.26,0-.47.24-.47.55s.21.55.47.55"/>
        <path class="cls-3" d="M11.29,26.1c0-.3.21-.55.47-.55h.12c.26,0,.47.25.47.55s-.21.55-.47.55h-.12c-.26,0-.47-.24-.47-.55"/>
        <path class="cls-3" d="M18.45,26.65h.14c.26,0,.47-.25.47-.55s-.21-.55-.47-.55h-.11c-.26,0-.47.25-.47.55s.21.55.47.55"/>
        <path class="cls-3" d="M20.64,26.65h.19c.26,0,.47-.25.47-.55s-.21-.55-.47-.55h-.11c-.26,0-.47.25-.47.55s.21.55.47.55"/>
        <path class="cls-3" d="M16.26,26.65h.09c.26,0,.47-.25.47-.55s-.21-.55-.47-.55h-.11c-.26,0-.47.24-.47.55s.21.55.47.55"/>
        <path class="cls-3" d="M14.07,26.65h.04c.26,0,.47-.25.47-.55s-.21-.55-.47-.55h-.11c-.26,0-.47.24-.47.55s.21.55.47.55"/>
        <path class="cls-4" d="M16.29,16.32c-3.85,0-6.98,2.99-6.98,6.65,0,1.13.3,2.25.89,3.26,1.24,2.09,3.57,3.4,6.09,3.4s4.85-1.3,6.09-3.4c0,0,0-.01,0-.01,0,0,0-.01,0-.01.58-.99.88-2.1.88-3.23,0-3.67-3.13-6.65-6.98-6.65M21.59,25.75s0,0-.01.01h0c-1.08,1.83-3.11,2.96-5.32,2.96s-4.23-1.13-5.32-2.97c-.49-.84-.75-1.81-.75-2.78,0-3.17,2.73-5.75,6.07-5.75s6.08,2.58,6.08,5.75c0,.97-.26,1.93-.75,2.78M16.29,16.32c-3.85,0-6.98,2.99-6.98,6.65,0,1.13.3,2.25.89,3.26,1.24,2.09,3.57,3.4,6.09,3.4s4.85-1.3,6.09-3.4c0,0,0-.01,0-.01,0,0,0-.01,0-.01.58-.99.88-2.1.88-3.23,0-3.67-3.13-6.65-6.98-6.65M21.59,25.75s0,0-.01.01h0c-1.08,1.83-3.11,2.96-5.32,2.96s-4.23-1.13-5.32-2.97c-.49-.84-.75-1.81-.75-2.78,0-3.17,2.73-5.75,6.07-5.75s6.08,2.58,6.08,5.75c0,.97-.26,1.93-.75,2.78M16.29,16.32c-3.85,0-6.98,2.99-6.98,6.65,0,1.13.3,2.25.89,3.26,1.24,2.09,3.57,3.4,6.09,3.4s4.85-1.3,6.09-3.4c0,0,0-.01,0-.01,0,0,0-.01,0-.01.58-.99.88-2.1.88-3.23,0-3.67-3.13-6.65-6.98-6.65M21.59,25.75s0,0-.01.01h0c-1.08,1.83-3.11,2.96-5.32,2.96s-4.23-1.13-5.32-2.97c-.49-.84-.75-1.81-.75-2.78,0-3.17,2.73-5.75,6.07-5.75s6.08,2.58,6.08,5.75c0,.97-.26,1.93-.75,2.78"/>
        <path class="cls-4" d="M26.86,21.13c-.64-1.51-1.58-2.89-2.78-4.02-1.77-1.69-3.97-2.73-6.33-3.04-.13-.02-.26-.04-.39-.05-.36-.04-.72-.05-1.08-.05s-.72.02-1.08.05c-.13.01-.26.03-.39.05-2.35.31-4.55,1.36-6.32,3.04-2.39,2.27-3.76,5.5-3.76,8.87,0,.25,0,.51.02.75,0,.02,0,.05.01.08.12,2.23.72,4.41,1.72,6.3.44.82.95,1.59,1.53,2.29.08.09.18.14.29.16,2.19.28,5.02.43,7.97.43s5.79-.15,7.98-.43c.11-.02.22-.07.29-.16.58-.69,1.09-1.46,1.53-2.29,1.01-1.89,1.6-4.06,1.72-6.29,0-.03.01-.06.01-.09.02-.25.02-.5.02-.75,0-1.68-.34-3.33-.99-4.85M15.36,14.91c.31-.03.62-.04.93-.04s.63.01.93.04c4.55.45,8.1,4.14,8.1,8.61,0,1.25-.27,2.45-.81,3.58-1.46,3.09-4.69,5.08-8.23,5.08s-6.76-1.99-8.22-5.08c-.54-1.13-.81-2.33-.81-3.58,0-4.47,3.55-8.16,8.1-8.61M26.93,26.59s-.01.06-.01.09c-.11,2.13-.67,4.21-1.63,6.01-.38.71-.82,1.38-1.31,2-2.13.26-4.85.4-7.69.4s-5.55-.14-7.68-.4c-.49-.61-.93-1.29-1.31-2-.96-1.81-1.52-3.88-1.63-6.01,0-.03,0-.05-.01-.08-.01-.2-.02-.42-.02-.62,0-1.63.34-3.21.99-4.65-.18.71-.27,1.44-.27,2.2,0,1.38.3,2.72.89,3.96,1.61,3.4,5.17,5.6,9.04,5.6s7.43-2.2,9.05-5.6c.59-1.25.89-2.58.89-3.96,0-.76-.09-1.49-.27-2.2.64,1.44.99,3.03.99,4.65,0,.2,0,.41-.02.61"/>
        <path class="cls-4" d="M38.22,13.92l-5.76-5.18-2.46-2.22c-.09-.08-.2-.12-.33-.11-.12.01-.23.07-.31.16l-4.87,5.65c-.1.11-.13.26-.1.4l.91,3.58c.02.08.07.16.13.22l6.19,5.72c.08.08.19.12.3.12h.04c.13-.01.24-.07.32-.17l5.98-7.56c.15-.19.13-.46-.05-.62M25.32,12.71l4.42-5.12,1.81,1.63-5.44,6.57-.78-3.08ZM31.88,21.23l-5.17-4.77,5.51-6.64,5.07,4.57-5.42,6.84Z"/>
      </g>
    </g>
  </g>
</svg>