<?xml version="1.0" encoding="UTF-8"?>
<svg xmlns="http://www.w3.org/2000/svg" xmlns:xlink="http://www.w3.org/1999/xlink" viewBox="0 0 43 44">
  <defs>
    <style>
      .cls-1 {
        fill: #007a72;
      }

      .cls-1, .cls-2, .cls-3, .cls-4 {
        stroke-width: 0px;
      }

      .cls-5 {
        mask: url(#mask);
      }

      .cls-2 {
        fill: #5c3e32;
      }

      .cls-3 {
        fill: #5c3e32;
      }

      .cls-6 {
        mix-blend-mode: darken;
      }

      .cls-7 {
        isolation: isolate;
      }

      .cls-4 {
        fill: #fff;
      }

      .cls-8 {
        mask: url(#mask-1);
      }
    </style>
    <mask id="mask" x=".35" y="1.06" width="42.24" height="42.24" maskUnits="userSpaceOnUse">
      <g id="mask0_2_19464" data-name="mask0 2 19464">
        <path class="cls-4" d="M.35,43.3h42.24V1.06H.35v42.24Z"/>
      </g>
    </mask>
    <mask id="mask-1" x=".24" y=".94" width="42.47" height="42.47" maskUnits="userSpaceOnUse">
      <g id="mask1_2_19464" data-name="mask1 2 19464">
        <path class="cls-4" d="M.24,43.41h42.47V.94H.24v42.47Z"/>
      </g>
    </mask>
  </defs>
  <g class="cls-7">
    <g id="Layer_1" data-name="Layer 1">
      <path class="cls-4" d="M21.47,43.3C9.83,43.3.36,33.82.36,22.18S9.83,1.06,21.47,1.06s21.12,9.47,21.12,21.12-9.47,21.12-21.12,21.12Z"/>
      <g class="cls-6">
        <g class="cls-5">
          <path class="cls-3" d="M21.47,2.01C10.35,2.01,1.31,11.06,1.31,22.18s9.05,20.17,20.17,20.17,20.17-9.05,20.17-20.17S32.59,2.01,21.47,2.01ZM21.47,43.3C9.83,43.3.36,33.82.36,22.18S9.83,1.06,21.47,1.06s21.12,9.47,21.12,21.12-9.47,21.12-21.12,21.12Z"/>
        </g>
      </g>
      <g class="cls-6">
        <g class="cls-8">
          <path class="cls-3" d="M21.47,2.13C10.42,2.13,1.42,11.12,1.42,22.18s8.99,20.05,20.05,20.05,20.05-8.99,20.05-20.05S32.53,2.13,21.47,2.13ZM21.47,42.46c-11.19,0-20.29-9.1-20.29-20.28S10.29,1.89,21.47,1.89s20.28,9.1,20.28,20.28-9.1,20.28-20.28,20.28ZM21.47,1.18C9.89,1.18.47,10.6.47,22.18s9.42,21,21,21,21-9.42,21-21S33.06,1.18,21.47,1.18ZM21.47,43.41C9.76,43.41.24,33.89.24,22.18S9.76.94,21.47.94s21.23,9.53,21.23,21.23-9.53,21.23-21.23,21.23Z"/>
        </g>
      </g>
      <g>
        <path class="cls-2" d="M21.5,36.31c-8.61,0-15.62-6.03-15.62-13.45,0-3.16,1.29-6.21,3.64-8.63v-4.87c0-.48.19-.95.55-1.26.53-.46,1.25-.53,1.84-.22l4.34,2.32c3.38-1.04,7.18-1.04,10.55.01l4.36-2.33c.55-.29,1.21-.25,1.72.12.43.31.67.83.67,1.37v4.94c2.31,2.4,3.57,5.43,3.57,8.56,0,7.42-7.01,13.45-15.62,13.45M11.17,8.96c-.09,0-.16.03-.2.06-.06.03-.19.13-.19.33v5.42l-.18.18c-2.22,2.2-3.45,5.02-3.45,7.92,0,6.72,6.44,12.18,14.35,12.18s14.35-5.46,14.35-12.18c0-2.87-1.2-5.66-3.38-7.85l-.18-.18v-5.49c0-.2-.13-.29-.19-.33-.06-.03-.2-.1-.38,0l-4.82,2.57-.25-.08c-1.64-.54-3.38-.81-5.16-.81s-3.48.27-5.12.8l-.25.08-4.79-2.56c-.06-.03-.12-.05-.18-.05"/>
        <path class="cls-1" d="M18.73,27.98c-1.55,0-2.96-.76-3.74-1.42-.26-.22-.3-.61-.08-.87.22-.26.61-.3.87-.08.12.1,3.01,2.46,5.36.04.24-.25.63-.25.88-.01.25.24.25.63.01.88-1.05,1.08-2.21,1.46-3.31,1.46"/>
        <path class="cls-1" d="M24.93,27.98c-1.55,0-2.96-.76-3.74-1.42-.26-.22-.3-.61-.08-.87.22-.26.61-.3.87-.08.12.1,3.01,2.46,5.36.04.24-.25.63-.25.88-.01.25.24.25.63.01.88-1.05,1.08-2.21,1.46-3.31,1.46"/>
        <path class="cls-1" d="M21.53,26.75c-.35,0-.63-.28-.63-.63v-3.14c0-.27.16-.52.42-.61.44-.14.84.18.84.6v3.15c0,.35-.28.63-.63.63"/>
      </g>
    </g>
  </g>
</svg>