<svg width="1047" height="246" viewBox="0 0 1047 246" fill="none" xmlns="http://www.w3.org/2000/svg">
<path d="M588.362 240.9C590.03 240.9 591.54 240.224 592.632 239.131C593.725 238.039 594.401 236.529 594.401 234.863V120.449V6.03733C594.401 4.36933 593.725 2.86 592.632 1.768C591.54 0.67467 590.03 -2.09312e-06 588.362 -2.09312e-06H577.002H565.641C563.974 -2.09312e-06 562.464 0.67467 561.372 1.768C560.28 2.86 559.604 4.36933 559.604 6.03733V120.449V234.863C559.604 236.529 560.28 238.039 561.372 239.131C562.464 240.224 563.974 240.9 565.641 240.9H577.002H588.362Z" fill="#5C3E32"/>
<path d="M644.115 240.9H655.451C657.126 240.9 658.64 240.221 659.738 239.125C660.835 238.028 661.512 236.512 661.512 234.837V157.923V81.0067C661.512 79.3333 660.835 77.8173 659.738 76.72C658.64 75.624 657.126 74.9453 655.451 74.9453H644.115H632.779C631.106 74.9453 629.59 75.624 628.492 76.72C627.395 77.8173 626.718 79.3333 626.718 81.0067V157.923V234.837C626.718 236.512 627.395 238.028 628.492 239.125C629.59 240.221 631.106 240.9 632.779 240.9H644.115Z" fill="#5C3E32"/>
<path d="M644.115 46.5051C650.472 46.5051 655.992 44.2464 659.924 40.4411C663.855 36.6357 666.198 31.2824 666.198 25.0917C666.198 19.2371 663.855 13.7997 659.924 9.82773C655.992 5.8544 650.472 3.34507 644.115 3.34507C637.591 3.34507 631.986 5.8544 628.012 9.82773C624.04 13.7997 621.698 19.2371 621.698 25.0917C621.698 31.2824 624.04 36.6357 628.012 40.4411C631.986 44.2464 637.591 46.5051 644.115 46.5051Z" fill="#5C3E32"/>
<path d="M776.61 245.584C795.087 245.584 812.409 240.338 826.422 230.918C840.435 221.499 851.142 207.907 856.394 191.219C856.75 190.088 856.591 188.923 856.057 187.966C855.523 187.008 854.613 186.259 853.466 185.96L841.285 182.788L829.102 179.615C828.086 179.351 827.054 179.488 826.181 179.938C825.306 180.386 824.589 181.143 824.201 182.119C819.891 192.951 813.243 200.787 805.049 205.916C796.853 211.044 787.11 213.464 776.61 213.464C761.219 213.464 747.835 208.027 738.299 198.366C728.765 188.704 723.077 174.819 723.077 157.923C723.077 141.528 728.765 127.643 738.299 117.856C747.835 108.07 761.219 102.382 776.61 102.382C787.053 102.382 796.822 104.926 804.891 110.19C812.961 115.454 819.331 123.439 822.975 134.322C823.333 135.384 824.069 136.219 824.985 136.71C825.902 137.2 826.998 137.348 828.075 137.036L840.769 133.355L853.462 129.674C854.606 129.342 855.497 128.563 856.005 127.586C856.51 126.608 856.633 125.434 856.237 124.311C850.402 107.775 839.491 94.2629 825.542 84.8843C811.591 75.5056 794.603 70.2603 776.61 70.2603C752.855 70.2603 730.939 79.2109 714.963 94.6443C698.986 110.076 688.95 131.992 688.95 157.923C688.95 184.188 698.986 206.104 714.963 221.452C730.939 236.802 752.855 245.584 776.61 245.584Z" fill="#5C3E32"/>
<path d="M996.059 199.286C985.896 209.198 972.177 214.802 957.957 214.802C943.403 214.802 929.601 209.198 919.439 199.286C909.275 189.374 902.751 175.154 902.751 157.923C902.751 140.691 909.275 126.473 919.439 116.561C929.601 106.649 943.403 101.045 957.957 101.045C972.177 101.045 985.896 106.649 996.059 116.561C1006.22 126.473 1012.83 140.691 1012.83 157.923C1012.83 175.154 1006.22 189.374 996.059 199.286ZM1020.61 95.2727C1004.55 80.0487 982.383 71.266 957.957 71.266C933.365 71.266 911.032 80.0487 894.847 95.2727C878.66 110.495 868.623 132.159 868.623 157.923C868.623 183.686 878.66 205.434 894.847 220.742C911.032 236.049 933.365 244.915 957.957 244.915C982.383 244.915 1004.55 236.049 1020.61 220.742C1036.67 205.434 1046.62 183.686 1046.62 157.923C1046.62 132.159 1036.67 110.495 1020.61 95.2727Z" fill="#5C3E32"/>
<path d="M222.589 221.62C237.729 236.969 258.307 245.752 280.055 245.752C282.62 245.752 285.14 245.661 287.612 245.48C290.085 245.3 292.509 245.032 294.883 244.677C304.072 243.303 312.027 238.604 317.687 231.925C323.345 225.247 326.707 216.589 326.707 207.299V203.571V199.841C326.707 199.183 326.309 198.692 325.797 198.483C325.284 198.275 324.655 198.348 324.191 198.816C319.044 204.009 312.963 208.048 306.401 210.788C299.841 213.528 292.804 214.969 285.741 214.969C270.519 214.969 256.968 209.533 247.223 199.704C237.479 189.876 231.54 175.656 231.54 158.091C231.54 140.692 237.479 126.472 247.223 116.603C256.968 106.732 270.519 101.211 285.741 101.211C299.46 101.211 313.095 106.732 323.3 116.603C333.505 126.472 340.281 140.692 340.281 158.091V171.308V184.524C340.281 201.753 344.504 215.285 352.043 225.197C359.58 235.108 370.432 241.399 383.688 244.144C385.957 244.555 399.624 246.801 412.085 243.925C424.547 241.049 435.801 233.049 433.249 212.967C433.12 211.949 432.923 210.944 432.671 209.951C432.417 208.957 432.108 207.979 431.755 207.016L431.64 206.707L431.527 206.397C431.297 205.775 430.815 205.325 430.245 205.116C429.676 204.908 429.021 204.939 428.449 205.276C424.316 207.708 419.829 209.631 415.377 210.945C410.925 212.259 406.508 212.964 402.515 212.964C394.316 212.964 387.457 210.453 382.648 205.352C377.839 200.249 375.077 192.553 375.077 182.181V130.676V79.1707C375.077 78.004 374.605 76.9467 373.84 76.1827C373.076 75.4187 372.019 74.9453 370.852 74.9453H357.679H344.507C343.34 74.9453 342.284 75.4187 341.519 76.1827C340.753 76.9467 340.281 78.004 340.281 79.1707V86.6773V94.184C333.087 86.656 324.304 80.7173 314.183 76.66C304.061 72.604 292.601 70.428 280.055 70.428C258.307 70.428 237.729 79.2947 222.589 94.6867C207.449 110.077 197.745 131.993 197.745 158.091C197.745 184.356 207.449 206.272 222.589 221.62Z" fill="#5C3E32"/>
<path d="M413.309 103.719H418.674H424.038H433.939H443.839H444.025H444.21V144.122V184.523C444.21 201.753 448.434 215.286 455.971 225.197C463.51 235.107 474.361 241.398 487.617 244.143C489.887 244.554 503.554 246.801 516.015 243.925C528.475 241.049 539.73 233.05 537.179 212.966C537.05 211.95 536.853 210.943 536.599 209.95C536.347 208.958 536.038 207.978 535.685 207.017L535.57 206.707L535.457 206.398C535.226 205.774 534.743 205.325 534.174 205.117C533.606 204.909 532.95 204.938 532.378 205.275C528.245 207.709 523.758 209.631 519.307 210.945C514.854 212.258 510.437 212.963 506.443 212.963C498.246 212.963 491.386 210.454 486.577 205.351C481.767 200.249 479.007 192.553 479.007 182.181V142.95V103.719H504.626H530.246C531.701 103.719 533.018 103.13 533.971 102.177C534.926 101.222 535.517 99.9048 535.517 98.4488V89.3327V80.2154C535.517 78.7594 534.926 77.4421 533.971 76.4887C533.018 75.5354 531.701 74.9447 530.246 74.9447H504.441H478.637V51.8168V28.6901C478.637 27.2341 478.046 25.9168 477.093 24.9634C476.139 24.0101 474.822 23.4194 473.366 23.4194H461.238H449.11C447.654 23.4194 446.337 24.0101 445.383 24.9634C444.429 25.9168 443.839 27.2341 443.839 28.6901V51.8168V74.9447H428.574H413.309C411.853 74.9447 410.535 75.5354 409.582 76.4887C408.629 77.4421 408.038 78.7594 408.038 80.2154V89.3327V98.4488C408.038 99.9048 408.629 101.222 409.582 102.177C410.535 103.13 411.853 103.719 413.309 103.719Z" fill="#5C3E32"/>
<path d="M74.437 139.171C74.437 149.619 82.9077 158.09 93.357 158.09C103.806 158.09 112.277 149.619 112.277 139.171C112.277 128.722 103.806 120.251 93.357 120.251C82.9077 120.251 74.437 128.722 74.437 139.171Z" fill="#5C3E32"/>
<path d="M103.363 245.336C102.659 245.336 102.211 245.328 102.047 245.323L101.215 245.283C43.1206 241.04 17.8126 210.558 3.83131 187.962C2.76064 186.231 1.86865 184.398 1.25531 182.458C-2.79935 169.62 3.37132 157.13 13.9726 151.927C15.426 151.216 16.6846 150.208 17.826 148.85C19.842 146.447 20.762 142.902 20.35 139.124C12.642 68.3736 59.2873 39.2883 86.3193 28.4923C87.9247 27.851 88.734 26.0696 88.186 24.4296C86.6633 19.8643 83.8966 11.6883 83.8966 11.6883C82.5753 7.79229 85.4726 3.74961 89.5873 3.74961H104.885C172.309 3.74961 204.257 38.903 218.273 63.1936C219.85 65.9256 218.846 69.4123 216.038 70.851L195.551 81.3429C192.959 82.6709 189.814 81.7363 188.331 79.2283C178.675 62.8909 160.918 45.4096 128.419 39.6576C126.387 39.2976 124.513 40.8483 124.427 42.9083C124.357 44.607 124.271 46.6283 124.193 48.4696C124.059 51.619 121.758 54.2456 118.655 54.7989L110.57 56.2416C104.117 57.463 46.99 70.1883 54.1007 135.447C55.51 148.378 51.7673 161.218 43.8327 170.672C43.3327 171.27 42.8193 171.851 42.2953 172.418C39.538 175.399 39.23 179.943 41.8593 183.036C51.994 194.959 69.9246 208.828 103.179 211.386H103.231C106.363 211.386 128.599 211.06 150.63 202.352C164.909 196.708 181.213 201.423 190.683 213.508C192.169 215.404 191.734 218.135 189.777 219.54C155.558 244.122 111.67 245.336 103.363 245.336Z" fill="#5C3E32"/>
</svg>
