<svg width="179" height="172" viewBox="0 0 179 172" fill="none" xmlns="http://www.w3.org/2000/svg">
<path d="M178.907 85.5638C178.907 94.6194 166.712 101.636 164.056 109.805C161.307 118.276 166.954 131.102 161.827 138.152C156.644 145.271 142.666 143.836 135.542 149.018C128.498 154.145 125.572 167.91 117.101 170.664C108.933 173.315 98.5117 163.986 89.4561 163.986C80.3957 163.986 69.9748 173.315 61.8014 170.664C53.3356 167.91 50.4099 154.145 43.3604 149.014C36.2412 143.836 22.263 145.266 17.0804 138.147C11.9488 131.102 17.6005 118.271 14.8513 109.805C12.195 101.636 0 94.6194 0 85.5638C0 76.5081 12.195 69.4911 14.8513 61.3224C17.6005 52.8519 11.9535 40.0254 17.0804 32.9759C22.263 25.8567 36.2459 27.2917 43.3604 22.1091C50.4099 16.9822 53.3356 3.21758 61.8014 0.468369C69.9748 -2.18796 80.3957 7.14171 89.4561 7.14171C98.5117 7.14171 108.933 -2.18796 117.106 0.468369C125.572 3.21758 128.498 16.9822 135.547 22.1137C142.666 27.2917 156.649 25.8614 161.827 32.9805C166.954 40.03 161.307 52.8566 164.061 61.3224C166.712 69.4911 178.907 76.5081 178.907 85.5638Z" fill="#007A72"/>
</svg>
