<svg width="191" height="183" viewBox="0 0 191 183" fill="none" xmlns="http://www.w3.org/2000/svg">
<path d="M71.5116 79.7783C71.5116 76.5508 69.1803 74.1638 66.1246 74.1638C63.0643 74.1638 60.7377 76.5508 60.7377 79.7783C60.7377 82.978 63.0643 85.3325 66.1246 85.3325C69.1803 85.3325 71.5116 82.978 71.5116 79.7783ZM76.1416 79.7783C76.1416 85.2489 71.7345 89.5724 66.1246 89.5724C60.5101 89.5724 56.103 85.2489 56.103 79.7783C56.103 74.2799 60.5101 69.9286 66.1246 69.9286C71.7345 69.9286 76.1416 74.2799 76.1416 79.7783Z" fill="white"/>
<path d="M85.1733 85.1379C88.6794 85.1379 90.9828 83.0063 90.9828 79.751C90.9828 76.4956 88.6794 74.364 85.1733 74.364H82.5355V85.1379H85.1733ZM85.3405 70.347C91.5447 70.347 95.6407 74.1643 95.6407 79.751C95.6407 85.333 91.5447 89.1503 85.3405 89.1503H77.9055V70.347H85.3405Z" fill="white"/>
<path d="M112.192 79.7783C112.192 76.5508 109.86 74.1638 106.805 74.1638C103.744 74.1638 101.418 76.5508 101.418 79.7783C101.418 82.978 103.744 85.3325 106.805 85.3325C109.86 85.3325 112.192 82.978 112.192 79.7783ZM116.822 79.7783C116.822 85.2489 112.414 89.5724 106.805 89.5724C101.19 89.5724 96.783 85.2489 96.783 79.7783C96.783 74.2799 101.19 69.9286 106.805 69.9286C112.414 69.9286 116.822 74.2799 116.822 79.7783Z" fill="white"/>
<path d="M127.591 78.825C129.249 78.825 130.312 77.9241 130.312 76.5494C130.312 75.2027 129.249 74.3064 127.591 74.3064H123.212V78.825H127.591ZM130.229 89.1531L124.563 82.698H123.212V89.1531H118.586V70.3498H128.097C132.165 70.3498 134.859 72.8204 134.859 76.4937C134.859 79.5819 132.95 81.8017 129.922 82.4705L135.815 89.1531H130.229Z" fill="white"/>
<path d="M77.2905 98.4351L72.7441 99.3639C72.4098 97.5945 70.9469 96.7215 69.4609 96.7215C67.9191 96.7215 66.9346 97.5667 66.9346 98.6301C66.9346 99.3917 67.2736 99.949 68.4485 100.204L72.3494 101.073C75.6094 101.802 77.5134 103.571 77.5134 106.543C77.5134 110.56 73.9515 112.636 69.7674 112.636C65.5321 112.636 62.0538 110.616 61.5476 106.938L66.3169 106.014C66.7953 107.951 68.142 108.791 70.0228 108.791C71.7596 108.791 72.7999 108.006 72.7999 106.855C72.7999 106.014 72.4098 105.48 71.0584 105.197L67.1343 104.356C64.4361 103.738 62.0817 102.336 62.0817 98.9134C62.0817 95.2633 65.1095 92.9924 69.5166 92.9924C73.6125 92.9924 76.5893 95.0125 77.2905 98.4351Z" fill="white"/>
<path d="M94.0959 112.214H79.449V93.4108H94.0123V97.3953H84.079V100.934H93.1997V104.691H84.079V108.23H94.0959V112.214Z" fill="white"/>
<path d="M104.756 98.6313L102.369 104.803H107.171L104.756 98.6313ZM110.032 112.215L108.713 108.788H100.8L99.4807 112.215H94.5117L102.369 93.4116H107.115L114.973 112.215H110.032Z" fill="white"/>
<path d="M129.671 112.214H115.781V93.4108H120.411V108.174H129.671V112.214Z" fill="white"/>
<path d="M76.7901 41.9122C77.7607 43.9276 76.8969 45.9756 74.6957 47.0298C72.5084 48.0793 70.3583 47.4802 69.2345 45.5809L71.027 44.2388C71.7422 45.3162 72.6849 45.7295 73.8134 45.1861C74.8257 44.7032 75.2901 43.7512 74.8629 42.8549C74.4914 42.0747 73.7112 41.8564 72.6803 42.3487L71.1663 43.0778L70.2793 41.2341L71.6679 40.5654C72.6524 40.0917 72.9775 39.3673 72.6106 38.5964C72.2019 37.7558 71.3056 37.4911 70.3397 37.9555C69.3738 38.4199 68.914 39.3534 69.4527 40.7094L67.3258 41.2481C66.5456 39.1815 67.3212 37.1196 69.4481 36.098C71.5704 35.0809 73.6276 35.7264 74.561 37.663C75.0487 38.6753 74.9744 39.6552 74.431 40.3936C75.4295 40.3564 76.3025 40.8951 76.7901 41.9122Z" fill="white"/>
<path d="M84.5089 37.1228C83.9423 34.8891 82.5723 33.5934 81.0306 33.9835C79.4841 34.3782 78.9036 36.1708 79.4748 38.4045C80.0414 40.6336 81.4067 41.9293 82.9485 41.5392C84.4949 41.1491 85.0754 39.3565 84.5089 37.1228ZM86.8262 36.533C87.7132 40.0438 86.3664 42.9045 83.4826 43.6382C80.594 44.372 78.0445 42.4958 77.1529 38.9897C76.2659 35.4974 77.608 32.6182 80.5012 31.8844C83.385 31.1507 85.9392 33.0408 86.8262 36.533Z" fill="white"/>
<path d="M97.1768 39.9232C99.5824 40.03 101.236 38.6833 101.338 36.431C101.44 34.1833 99.9075 32.6926 97.5019 32.5858L95.5793 32.5022L95.2589 39.8396L97.1768 39.9232ZM97.5994 30.4589C101.421 30.6261 103.859 33.0734 103.706 36.5378C103.558 39.9975 100.906 42.222 97.0793 42.0502L92.8069 41.8644L93.327 30.2685L97.5994 30.4589Z" fill="white"/>
<path d="M111.669 40.1795C112.087 38.6424 111.163 37.3514 109.974 37.0263C108.637 36.6687 107.369 37.3653 106.951 38.9025C106.538 40.4443 107.281 41.6656 108.618 42.0278C109.807 42.3483 111.256 41.7167 111.669 40.1795ZM112.751 44.9396L110.545 44.3452L110.722 43.6904C109.863 44.0712 108.855 44.1548 107.717 43.8483C105.595 43.2724 104.104 40.9504 104.815 38.3266C105.525 35.6982 107.987 34.4257 110.109 35.0016C111.247 35.3127 112.073 35.8932 112.621 36.6687L112.802 36L115.008 36.5991L112.751 44.9396Z" fill="white"/>
<path d="M116.056 49.6107L113.771 48.4776L116.446 46.2067L116.948 37.1L119.233 38.2331L118.833 44.1959L123.422 40.3089L125.706 41.4374L116.056 49.6107Z" fill="white"/>
<path d="M65.9486 137.33C65.7257 137.664 65.5307 137.934 65.3542 138.147C63.1855 140.822 59.6468 141.282 56.9812 139.123C54.2924 136.945 53.8605 133.183 56.0106 130.531C58.1468 127.889 61.9131 127.513 64.5647 129.658C66.4641 131.2 67.5322 133.536 66.6963 135.886L64.5833 135.138C64.9502 133.336 64.1514 132.175 63.1669 131.381C61.5555 130.071 59.2428 130.341 57.8682 132.036C56.4843 133.745 56.7444 136.095 58.4255 137.455C59.7954 138.57 61.4719 138.588 62.8186 137.562L59.6561 134.999L61.0121 133.332L65.9486 137.33Z" fill="white"/>
<path d="M71.5702 147.674L69.5315 146.643L69.8798 145.946C68.9742 146.243 68.0036 146.16 66.9866 145.64C65.129 144.702 64.5671 142.746 65.5377 140.833L67.92 136.134L69.9587 137.169L67.7993 141.432C67.2467 142.514 67.5021 143.555 68.4401 144.033C69.6011 144.618 70.7482 144.228 71.7048 142.342L73.437 138.929L75.4757 139.96L71.5702 147.674Z" fill="white"/>
<path d="M82.0436 146.312C82.4801 144.78 81.5699 143.479 80.3857 143.14C79.0529 142.76 77.7805 143.442 77.3439 144.979C76.9074 146.512 77.6365 147.743 78.9693 148.119C80.1582 148.458 81.6117 147.845 82.0436 146.312ZM83.0653 151.086L80.864 150.464L81.0498 149.814C80.186 150.181 79.1783 150.255 78.0452 149.93C75.9275 149.326 74.4694 146.986 75.2124 144.371C75.9554 141.752 78.4306 140.512 80.5483 141.116C81.6814 141.436 82.5034 142.031 83.0374 142.811L83.2278 142.147L85.429 142.769L83.0653 151.086Z" fill="white"/>
<path d="M92.8699 143.705L92.4938 145.873L91.9969 145.818C89.8978 145.572 88.7833 146.751 88.5046 149.143L88.1842 151.915L85.918 151.65L86.9118 143.064L89.1827 143.329L89.0015 144.894C89.8049 143.974 90.8823 143.403 92.2755 143.565C92.4984 143.589 92.6702 143.612 92.8699 143.705Z" fill="white"/>
<path d="M99.8927 147.853C99.8277 146.26 98.5599 145.308 97.3292 145.359C95.9453 145.415 94.9469 146.459 95.0119 148.052C95.0816 149.645 96.1543 150.588 97.5428 150.532C98.7735 150.481 99.9577 149.446 99.8927 147.853ZM102.354 152.069L100.074 152.162L100.041 151.484C99.34 152.106 98.402 152.492 97.2271 152.538C95.0305 152.631 92.9082 150.862 92.7968 148.145C92.6853 145.429 94.6543 143.473 96.8509 143.381C98.0258 143.334 98.9918 143.641 99.7441 144.216L99.7162 143.525L102.001 143.432L102.354 152.069Z" fill="white"/>
<path d="M112.764 144.61L113.981 149.736L111.756 150.261L110.651 145.613C110.372 144.428 109.509 143.797 108.482 144.043C107.219 144.345 106.592 145.38 107.08 147.438L107.967 151.162L105.743 151.687L103.741 143.281L105.965 142.752L106.147 143.509C106.653 142.696 107.442 142.134 108.557 141.87C110.577 141.391 112.272 142.52 112.764 144.61Z" fill="white"/>
<path d="M122.152 145.993C121.507 146.787 120.987 147.168 120.313 147.447C118.423 148.227 116.77 147.749 115.86 145.552L114.494 142.236L112.781 142.942L112.07 141.215L113.779 140.509L112.785 138.089L114.898 137.221L115.897 139.636L118.507 138.558L119.217 140.291L116.607 141.363L117.908 144.521C118.307 145.483 118.939 145.71 119.649 145.418C120.016 145.264 120.494 144.879 120.819 144.484L122.152 145.993Z" fill="white"/>
<path d="M122.178 140.178L125.763 138.037C124.941 137.239 123.979 137.248 123.19 137.717C122.447 138.163 121.866 139.115 122.178 140.178ZM128.595 138.218L122.944 141.599C123.775 142.551 124.927 142.756 125.832 142.212C126.417 141.864 127.1 141.353 127.091 140.127L129.069 139.454C129.338 141.39 128.461 142.923 126.84 143.893C124.741 145.143 122.085 144.576 120.687 142.24C119.294 139.904 120.041 137.276 122.168 136.008C124.147 134.824 126.77 135.335 128.196 137.554L128.595 138.218Z" fill="white"/>
<path d="M130.283 134.755L133.446 132.029C132.498 131.383 131.551 131.555 130.854 132.154C130.2 132.721 129.791 133.761 130.283 134.755ZM136.269 131.727L131.282 136.018C132.266 136.817 133.436 136.821 134.235 136.129C134.746 135.688 135.331 135.071 135.113 133.863L136.947 132.855C137.546 134.718 136.943 136.385 135.508 137.615C133.659 139.208 130.938 139.101 129.164 137.044C127.39 134.982 127.683 132.266 129.559 130.645C131.305 129.145 133.98 129.196 135.758 131.132L136.269 131.727Z" fill="white"/>
<path d="M163 91.5C156.926 91.5 152.004 86.8001 152.004 81C152.004 86.8001 147.074 91.5 141 91.5C147.074 91.5 152.004 96.1999 152.004 102C152.004 96.1999 156.926 91.5 163 91.5Z" fill="white"/>
<path d="M49 91.5C43.2022 91.5 38.504 86.8001 38.504 81C38.504 86.8001 33.7978 91.5 28 91.5C33.7978 91.5 38.504 96.1999 38.504 102C38.504 96.1999 43.2022 91.5 49 91.5Z" fill="white"/>
</svg>
