<svg width="446" height="107" viewBox="0 0 446 107" fill="none" xmlns="http://www.w3.org/2000/svg">
<g style="mix-blend-mode:multiply">
<mask id="mask0_3_19939" style="mask-type:luminance" maskUnits="userSpaceOnUse" x="225" y="20" width="221" height="27">
<path d="M225.798 46.4954H445.031V20.2013H225.798V46.4954Z" fill="white"/>
</mask>
<g mask="url(#mask0_3_19939)">
<path d="M244.663 28.6751L239.881 29.6605C239.533 27.4462 237.597 26.0028 235.243 26.0028C232.855 26.0028 231.412 27.336 231.412 28.9185C231.412 30.1127 231.939 30.959 233.765 31.3126L238.832 32.327C242.663 33.1386 245.017 35.4225 245.017 39.0802C245.017 43.6481 241.255 46.4943 235.667 46.4943C230.745 46.4943 226.421 44.2103 225.824 39.5034L230.85 38.4832C231.481 41.1555 233.452 42.309 236.125 42.309C238.861 42.309 240.304 41.0105 240.304 39.3295C240.304 37.9904 239.672 37.1789 237.568 36.7615L232.571 35.8109C229.76 35.208 226.386 33.6661 226.386 29.0634C226.386 24.8434 229.835 21.8929 235.348 21.8929C240.13 21.8929 243.753 24.4898 244.663 28.6751Z" fill="#5C3E32"/>
<path d="M261.345 37.2154C261.345 33.946 258.812 31.9809 256.388 31.9809C253.855 31.9809 251.328 33.946 251.328 37.2154C251.328 40.4847 253.855 42.4556 256.388 42.4556C258.812 42.4556 261.345 40.4847 261.345 37.2154ZM265.843 37.2154C265.843 42.7339 261.519 46.4264 256.388 46.4264C251.148 46.4264 246.824 42.7339 246.824 37.2154C246.824 31.6969 251.148 28.0043 256.388 28.0043C261.519 28.0043 265.843 31.6969 265.843 37.2154Z" fill="#5C3E32"/>
<path d="M285.082 45.9688H280.445V44.3863C279.071 45.7602 277.245 46.4963 274.926 46.4963C270.706 46.4963 267.895 43.4762 267.895 39.1113V28.4279H272.532V38.1258C272.532 40.5895 273.941 42.2415 276.086 42.2415C278.723 42.2415 280.445 40.4851 280.445 36.1955V28.4279H285.082V45.9688Z" fill="#5C3E32"/>
<path d="M301.127 28.3231L300.878 32.7866H299.858C295.574 32.7866 293.603 35.4241 293.603 40.3108V45.9684H288.96V28.4274H293.603V31.6272C295.012 29.5868 297.046 28.1782 299.893 28.1782C300.351 28.1782 300.704 28.1782 301.127 28.3231Z" fill="#5C3E32"/>
<path d="M315.342 38.8325L319.626 39.9223C318.64 43.9279 315.023 46.4958 310.843 46.4958C305.708 46.4958 301.453 42.7338 301.453 37.2153C301.453 31.6968 305.708 27.8999 310.843 27.8999C314.919 27.8999 318.472 30.4331 319.626 34.3691L315.162 35.6327C314.53 33.1749 312.878 32.1547 310.843 32.1547C307.922 32.1547 305.957 34.2299 305.957 37.2153C305.957 40.2412 307.922 42.2468 310.843 42.2468C312.878 42.2468 314.53 41.2614 315.342 38.8325Z" fill="#5C3E32"/>
<path d="M325.476 35.179H333.951C333.348 32.9299 331.661 31.9444 329.801 31.9444C328.044 31.9444 326.039 32.9936 325.476 35.179ZM338.693 38.4426H325.331C325.795 40.9816 327.586 42.5235 329.731 42.5235C331.099 42.5235 332.821 42.3496 334.084 40.2048L338.235 41.0801C336.687 44.7378 333.563 46.4943 329.731 46.4943C324.775 46.4943 320.734 42.7322 320.734 37.2137C320.734 31.6952 324.775 27.8983 329.801 27.8983C334.473 27.8983 338.519 31.5213 338.693 36.8659V38.4426Z" fill="#5C3E32"/>
<path d="M354.208 37.2153C354.208 33.9807 351.716 31.946 349.211 31.946C346.406 31.946 344.296 33.9807 344.296 37.2153C344.296 40.4498 346.406 42.4555 349.211 42.4555C351.716 42.4555 354.208 40.4498 354.208 37.2153ZM358.846 45.9683H354.208V44.5945C352.73 45.7944 350.794 46.4958 348.406 46.4958C343.942 46.4958 339.797 42.7338 339.797 37.2153C339.797 31.6968 343.942 27.8999 348.406 27.8999C350.794 27.8999 352.73 28.6013 354.208 29.836V20.6597H358.846V45.9683Z" fill="#5C3E32"/>
<path d="M381.086 28.4295V32.2264H375.776V45.9705H371.133V32.2264H368.466V28.4295H371.133V26.847C371.133 22.7313 373.95 20.2039 378.06 20.2039C379.184 20.2039 380.205 20.4126 381.19 20.8705L380.135 24.6326C379.498 24.4182 378.866 24.3138 378.379 24.3138C376.866 24.3138 375.776 25.1949 375.776 26.847V28.4295H381.086Z" fill="#5C3E32"/>
<path d="M394.344 28.3231L394.1 32.7866H393.08C388.79 32.7866 386.825 35.4241 386.825 40.3108V45.9684H382.182V28.4274H386.825V31.6272C388.234 29.5868 390.268 28.1782 393.115 28.1782C393.573 28.1782 393.926 28.1782 394.344 28.3231Z" fill="#5C3E32"/>
<path d="M409.154 37.2154C409.154 33.946 406.621 31.9809 404.198 31.9809C401.665 31.9809 399.137 33.946 399.137 37.2154C399.137 40.4847 401.665 42.4556 404.198 42.4556C406.621 42.4556 409.154 40.4847 409.154 37.2154ZM413.653 37.2154C413.653 42.7339 409.328 46.4264 404.198 46.4264C398.958 46.4264 394.633 42.7339 394.633 37.2154C394.633 31.6969 398.958 28.0043 404.198 28.0043C409.328 28.0043 413.653 31.6969 413.653 37.2154Z" fill="#5C3E32"/>
<path d="M445.024 35.0014V45.9689H440.416V35.9521C440.416 33.5928 438.909 32.1552 436.972 32.1552C434.509 32.1552 432.892 33.8421 432.892 37.5346V45.9689H428.254V35.9521C428.254 33.5928 426.741 32.1552 424.811 32.1552C422.347 32.1552 420.805 33.8421 420.805 37.5346V45.9689H416.162V28.4279H420.805V29.8713C422.034 28.6424 423.756 27.9004 426.04 27.9004C428.393 27.9004 430.544 28.9206 431.808 30.7814C433.245 28.9902 435.396 27.9004 438.201 27.9004C441.859 27.9004 445.024 30.7118 445.024 35.0014Z" fill="#5C3E32"/>
</g>
</g>
<g style="mix-blend-mode:multiply">
<mask id="mask1_3_19939" style="mask-type:luminance" maskUnits="userSpaceOnUse" x="224" y="52" width="222" height="43">
<path d="M224.233 94.6083H445.263V52.7152H224.233V94.6083Z" fill="white"/>
</mask>
<g mask="url(#mask1_3_19939)">
<path d="M244.233 65.2476L238.697 78.7425H249.71L244.233 65.2476ZM255.867 93.7618L252.586 85.687H235.874L232.541 93.7618H224.245L240.621 55.9323H247.786L264.162 93.7618H255.867Z" fill="#5C3E32"/>
<path d="M312.827 76.1444V93.7607H305.431V77.669C305.431 73.8895 303.002 71.5708 299.895 71.5708C295.941 71.5708 293.344 74.2837 293.344 80.2079V93.7607H285.89V77.669C285.89 73.8895 283.461 71.5708 280.36 71.5708C276.406 71.5708 273.92 74.2837 273.92 80.2079V93.7607H266.471V65.5885H273.92V67.9015C275.896 65.9248 278.661 64.7364 282.336 64.7364C286.122 64.7364 289.565 66.3769 291.594 69.368C293.907 66.487 297.356 64.7364 301.871 64.7364C307.744 64.7364 312.827 69.2579 312.827 76.1444Z" fill="#5C3E32"/>
<path d="M323.768 76.4292H337.378C336.416 72.8178 333.709 71.2353 330.712 71.2353C327.889 71.2353 324.672 72.928 323.768 76.4292ZM345.001 81.681H323.542C324.278 85.7446 327.153 88.2256 330.602 88.2256C332.799 88.2256 335.57 87.9473 337.604 84.5041L344.265 85.9127C341.784 91.7848 336.758 94.6078 330.602 94.6078C322.643 94.6078 316.145 88.5676 316.145 79.7044C316.145 70.8411 322.643 64.7372 330.712 64.7372C338.225 64.7372 344.717 70.5513 345.001 79.1363V81.681Z" fill="#5C3E32"/>
<path d="M368.541 65.4183L368.147 72.5889H366.507C359.62 72.5889 356.461 76.8263 356.461 84.6751V93.7644H349.006V65.5864H356.461V70.7223C358.716 67.453 361.991 65.1922 366.565 65.1922C367.301 65.1922 367.863 65.1922 368.541 65.4183Z" fill="#5C3E32"/>
<path d="M371.981 65.5896H379.436V93.7618H371.981V65.5896ZM380.224 57.1728C380.224 59.6596 378.305 61.5204 375.708 61.5204C373.053 61.5204 371.192 59.6596 371.192 57.1728C371.192 54.8019 373.053 52.7151 375.708 52.7151C378.305 52.7151 380.224 54.8019 380.224 57.1728Z" fill="#5C3E32"/>
<path d="M406.079 82.3007L412.965 84.0513C411.383 90.4915 405.569 94.6072 398.85 94.6072C390.602 94.6072 383.773 88.567 383.773 79.7037C383.773 70.8405 390.602 64.7365 398.85 64.7365C405.401 64.7365 411.105 68.8059 412.965 75.1301L405.795 77.159C404.78 73.2114 402.126 71.5709 398.85 71.5709C394.161 71.5709 391.002 74.904 391.002 79.7037C391.002 84.5556 394.161 87.7786 398.85 87.7786C402.126 87.7786 404.78 86.1961 406.079 82.3007Z" fill="#5C3E32"/>
<path d="M437.804 79.7033C437.804 74.5094 433.793 71.2342 429.787 71.2342C425.266 71.2342 421.88 74.5094 421.88 79.7033C421.88 84.8971 425.266 88.1143 429.787 88.1143C433.793 88.1143 437.804 84.8971 437.804 79.7033ZM445.259 93.7604H437.804V91.5634C435.433 93.4821 432.326 94.6067 428.483 94.6067C421.318 94.6067 414.652 88.5665 414.652 79.7033C414.652 70.84 421.318 64.7361 428.483 64.7361C432.326 64.7361 435.433 65.8664 437.804 67.8431V65.5882H445.259V93.7604Z" fill="#5C3E32"/>
</g>
</g>
<path fill-rule="evenodd" clip-rule="evenodd" d="M124.668 65.1733H12.233C11.986 64.8188 11.7389 64.4636 11.492 64.1066C10.9162 63.6676 10.7557 63.0866 10.7879 62.4603L13.036 63.6413L12.207 58.8068L15.7199 55.3809L10.868 54.6737L8.68841 50.274L6.75084 54.2061C6.66417 54.1004 6.60126 53.9801 6.61156 53.8174C6.63475 53.3362 6.34453 53.2203 5.93296 53.0638C5.51559 52.8957 5.07538 52.6638 4.83192 52.2116C4.88932 52.2383 4.95252 52.2584 5.01536 52.2784C5.13019 52.315 5.24382 52.3512 5.31875 52.4261C5.80423 52.9316 6.11271 52.6334 6.42671 52.3298C6.47639 52.2817 6.52621 52.2336 6.57689 52.1884C6.48053 52.1818 6.38434 52.1738 6.28826 52.1659L6.28807 52.1659C5.80044 52.1257 5.31613 52.0857 4.83192 52.2116C4.67423 52.0874 4.49173 51.9968 4.30768 51.9077L3.48113 47.0872L6.99396 43.6671L2.14208 42.9599L1.20823 41.0647C1.20738 40.189 1.20746 39.3125 1.22027 38.4328C1.22428 38.0522 1.10392 37.6993 0.985172 37.3511L0.985144 37.351C0.932079 37.1954 0.879338 37.0408 0.838163 36.885L0.817976 36.808C0.720235 36.4357 0.625889 36.0763 0.65843 35.6967C0.704804 34.8562 0.443469 34.0852 0.165225 33.3027C-0.0260677 32.7578 -0.0779667 32.1201 0.153903 31.6216C0.816142 30.2533 1.26162 28.8523 1.26007 27.3567L4.30975 28.959L3.48082 24.1245L6.99365 20.7044L2.29971 20.0202C2.29949 19.8509 2.29913 19.6817 2.29877 19.5125V19.5123C2.29702 18.6856 2.29527 17.8596 2.30999 17.0312C2.30999 16.7111 2.20307 16.4304 2.09632 16.15L2.09631 16.15C2.02905 15.9734 1.96185 15.797 1.92151 15.611C1.90648 15.5396 1.88982 15.4682 1.87318 15.3968C1.81281 15.138 1.75262 14.88 1.77079 14.6255C1.84668 13.7244 1.56985 12.9125 1.29205 12.0978C1.23033 11.9168 1.16855 11.7356 1.11059 11.5533C1.06866 11.4196 1.02402 11.2865 0.979316 11.1532C0.826276 10.6969 0.672398 10.2381 0.623049 9.74462C0.588269 9.26929 0.44339 8.77663 0.22891 8.34187C0.00283677 7.86654 0.0263464 7.37963 0.124891 6.94487C0.229233 6.45215 0.623315 6.17968 1.1856 6.17968C1.78266 6.19127 2.38573 6.19123 2.98859 6.18543C3.13005 6.18543 3.2715 6.18527 3.41295 6.18511C4.12349 6.18431 4.83382 6.18352 5.54448 6.20285C6.02561 6.22025 6.19959 6.13912 6.20539 5.59422C6.20886 4.99319 6.37888 4.42132 6.5495 3.84739C6.66357 3.46371 6.77791 3.0791 6.84295 2.68426C6.90671 2.31907 7.28356 2.29587 7.62557 2.29587C9.04449 2.3036 10.4662 2.30102 11.8852 2.29844H11.8853C12.5938 2.29716 13.3017 2.29587 14.0082 2.29587H14.2203C22.9318 2.29587 31.6489 2.29587 40.366 2.30162C42.2644 2.30162 44.1614 2.30598 46.0584 2.31033C47.9554 2.31469 49.8523 2.31905 51.7508 2.31905C53.3959 2.31905 55.0413 2.32105 56.6869 2.32305H56.6869C61.9008 2.32938 67.1164 2.33573 72.3288 2.27845C75.8339 2.24368 79.3337 2.24368 82.8388 2.24368H87.6323C92.0842 2.22629 96.5365 2.26108 100.988 2.31905C101.887 2.32484 102.623 2.11612 103.319 1.57703C103.533 1.40312 103.73 1.32202 103.892 1.32202C104.177 1.32202 104.38 1.55966 104.432 2.0176C104.588 3.04942 105.521 3.93632 106.553 3.95371C106.801 3.95706 107.016 4.03786 107.232 4.11889C107.389 4.17807 107.547 4.23738 107.719 4.26674C108.449 4.38268 109.087 4.24936 109.771 4.01749C110.6 3.73924 111.342 4.16239 111.944 4.68989C112.13 4.85303 112.325 4.9987 112.527 5.13181L110.745 8.7499L105.887 9.45711L109.406 12.8772L108.577 17.7117L112.913 15.4336L117.26 17.7117L116.425 12.8772L119.944 9.45711L115.086 8.7499L113.589 5.71979C113.776 5.81017 113.965 5.89734 114.153 5.98447C114.606 6.1937 115.058 6.40266 115.486 6.65502C115.66 6.75936 115.955 6.75934 116.158 6.68978C117.001 6.39679 117.82 6.50048 118.674 6.60871C118.767 6.6204 118.859 6.63213 118.953 6.64343C119.504 6.70912 120.03 6.84364 120.553 6.97744L120.553 6.97747C120.953 7.07981 121.351 7.18172 121.758 7.25207C122.744 7.42597 123.712 7.08394 124.57 6.72454C124.602 6.71056 124.635 6.69688 124.668 6.6835V9.2467L123.224 9.45711L124.668 10.8625V20.1389L123.695 19.9972L121.527 15.5975L119.348 19.9972L114.496 20.7044L118.009 24.1245L117.18 28.959L121.527 26.6809L124.668 28.3307V32.2077L123.223 32.4182L124.668 33.8271V43.0995L123.694 42.9578L121.52 38.5581L119.352 42.9578L114.5 43.665L118.013 47.0909L117.184 51.9254L121.52 49.6414L124.668 51.2949V55.1703L123.223 55.3809L124.668 56.7897V65.1733ZM5.18031 12.8804L4.35138 17.7149L8.69314 15.4309L13.0349 17.7149L12.206 12.8804L15.7188 9.4545L10.8669 8.75309L8.69314 4.34756L6.52516 8.75309L1.66748 9.4545L5.18031 12.8804ZM36.8058 19.9972L34.6378 15.5975L32.4582 19.9972L27.6064 20.7044L31.1192 24.1245L30.2903 28.959L34.6378 26.6809L38.9738 28.959L38.1449 24.1245L41.6577 20.7044L36.8058 19.9972ZM47.7008 40.6786L46.8718 35.8441L50.3847 32.4182L45.5328 31.711L43.3532 27.3113L41.1852 31.711L36.3333 32.4182L39.8462 35.8441L39.0172 40.6786L43.3532 38.3947L47.7008 40.6786ZM41.6609 43.665L38.148 47.0909L38.977 51.9254L34.6294 49.6414L30.2934 51.9254L31.1224 47.0909L27.6096 43.665L32.4614 42.9578L34.6294 38.5581L36.8032 42.9578L41.6609 43.665ZM21.6503 51.9264L17.3028 49.6425L12.9552 51.9264L13.7899 47.0919L10.2713 43.6661L15.1348 42.9589L17.3028 38.5591L19.4708 42.9589L24.3284 43.6661L20.8156 47.0919L21.6503 51.9264ZM62.8615 54.6758L60.6935 50.2761L58.5139 54.6758L53.662 55.383L57.1748 58.8031L56.3459 63.6434L60.6935 61.3595L65.0294 63.6434L64.2005 58.8031L67.7133 55.383L62.8615 54.6758ZM71.4706 42.9599L69.3026 38.5601L67.123 42.9599L62.2712 43.6671L65.784 47.0872L64.9551 51.9216L69.3026 49.6435L73.6386 51.9216L72.8096 47.0872L76.3225 43.6671L71.4706 42.9599ZM18.9962 32.4193L23.8538 31.7121L26.0218 27.3124L28.1956 31.7121L33.0533 32.4193L29.5404 35.8394L30.3694 40.6797L26.0218 38.3957L21.6859 40.6797L22.5148 35.8394L18.9962 32.4193ZM12.207 35.8441L13.036 40.6786L8.68841 38.3947L4.35244 40.6786L5.18137 35.8441L1.66855 32.4182L6.52042 31.711L8.68841 27.3113L10.868 31.711L15.7199 32.4182L12.207 35.8441ZM28.1967 54.6758L26.0287 50.2761L23.8491 54.6758L18.9972 55.383L22.5101 58.8031L21.6811 63.6434L26.0287 61.3595L30.3646 63.6434L29.5415 58.8031L33.0485 55.383L28.1967 54.6758ZM51.9671 49.6425L56.3088 51.9264L55.4799 47.0919L58.9985 43.6661L54.1351 42.9589L51.9671 38.5591L49.7991 42.9589L44.9414 43.6661L48.4542 47.0919L47.6195 51.9264L51.9671 49.6425ZM47.7008 63.6413L46.8718 58.8068L50.3847 55.3809L45.5328 54.6737L43.3532 50.274L41.1852 54.6737L36.3333 55.3809L39.8462 58.8068L39.0172 63.6413L43.3532 61.3574L47.7008 63.6413ZM82.3645 63.6413L81.5355 58.8068L85.0484 55.3809L80.1965 54.6737L78.0169 50.274L75.8489 54.6737L70.9971 55.3809L74.5099 58.8068L73.681 63.6413L78.0169 61.3574L82.3645 63.6413ZM62.8615 31.7121L60.6935 27.3124L58.5139 31.7121L53.662 32.4193L57.1748 35.8394L56.3459 40.6797L60.6935 38.3957L65.0294 40.6797L64.2005 35.8394L67.7133 32.4193L62.8615 31.7121ZM15.1311 19.9972L10.2734 20.7044L13.7921 24.1245L12.9631 28.959L17.2991 26.6809L21.6467 28.959L20.8177 24.1245L24.3306 20.7044L19.4787 19.9972L17.2991 15.5975L15.1311 19.9972ZM51.9671 15.5964L49.7991 19.9962L44.9414 20.7034L48.4542 24.1293L47.6195 28.9637L51.9671 26.6798L56.3088 28.9637L55.4799 24.1293L58.9985 20.7034L54.1351 19.9962L51.9671 15.5964ZM70.9949 9.45503L74.5078 12.8809L73.6788 17.7154L78.0206 15.4315L82.3624 17.7154L81.5334 12.8809L85.0463 9.45503L80.1944 8.75362L78.0206 4.34809L75.8468 8.75362L70.9949 9.45503ZM82.3645 40.6786L81.5355 35.8441L85.0484 32.4182L80.1965 31.711L78.0169 27.3113L75.8489 31.711L70.9971 32.4182L74.5099 35.8441L73.681 40.6786L78.0169 38.3947L82.3645 40.6786ZM23.8538 8.7499L18.9962 9.45711L22.5148 12.8772L21.6859 17.7117L26.0218 15.4336L30.3694 17.7117L29.5404 12.8772L33.0533 9.45711L28.1956 8.7499L26.0218 4.35017L23.8538 8.7499ZM67.1278 19.9972L62.2701 20.7044L65.7887 24.1245L64.9598 28.959L69.2958 26.6809L73.6433 28.959L72.8144 24.1245L76.3272 20.7044L71.4695 19.9972L69.2958 15.5975L67.1278 19.9972ZM41.1868 8.7499L36.3291 9.45711L39.8477 12.8772L39.0188 17.7117L43.3547 15.4336L47.7023 17.7117L46.8676 12.8772L50.3862 9.45711L45.5285 8.7499L43.3547 4.35017L41.1868 8.7499ZM60.6892 4.34968L58.5212 8.74941L53.6578 9.45662L57.1764 12.8825L56.3417 17.717L60.6892 15.4331L65.0368 17.717L64.202 12.8825L67.7149 9.45662L62.8572 8.74941L60.6892 4.34968ZM104.193 49.6425L108.541 51.9264L107.706 47.0919L111.219 43.6661L106.361 42.9589L104.193 38.5591L102.025 42.9589L97.1673 43.6661L100.68 47.0919L99.8454 51.9264L104.193 49.6425ZM110.745 31.7121L105.887 32.4193L109.406 35.8394L108.577 40.6797L112.913 38.3957L117.26 40.6797L116.425 35.8394L119.944 32.4193L115.086 31.7121L112.913 27.3124L110.745 31.7121ZM99.9256 40.6786L99.0967 35.8441L102.61 32.4182L97.7576 31.711L95.578 27.3113L93.4101 31.711L88.5582 32.4182L92.071 35.8441L91.2421 40.6786L95.578 38.3947L99.9256 40.6786ZM89.0317 42.9599L86.8637 38.5601L84.6842 42.9599L79.8323 43.6671L83.3451 47.0872L82.5162 51.9216L86.8637 49.6435L91.1997 51.9216L90.3708 47.0872L93.8836 43.6671L89.0317 42.9599ZM92.071 12.8804L91.2421 17.7149L95.5838 15.4309L99.9256 17.7149L99.0967 12.8804L102.61 9.4545L97.7518 8.75309L95.5838 4.34756L93.4101 8.75309L88.5582 9.4545L92.071 12.8804ZM89.0325 19.9972L86.8645 15.5975L84.6849 19.9972L80.3258 20.629C80.2997 20.6957 80.2721 20.7609 80.2446 20.8261L80.2443 20.8268C80.2169 20.8918 80.1895 20.9568 80.1635 21.0232L83.3459 24.1245L82.5169 28.959L86.8645 26.6809L91.2005 28.959L90.3715 24.1245L93.8844 20.7044L89.0325 19.9972ZM115.087 54.6758L112.919 50.2761L110.74 54.6758L105.888 55.383L109.401 58.8031L108.572 63.6434L112.919 61.3595L117.255 63.6434L116.426 58.8031L119.939 55.383L115.087 54.6758ZM99.9256 63.6413L99.0967 58.8068L102.61 55.3809L97.7576 54.6737L95.578 50.274L93.4101 54.6737L88.5582 55.3809L92.071 58.8068L91.2421 63.6413L95.578 61.3574L99.9256 63.6413ZM102.021 19.9972L97.1631 20.7044L100.682 24.1245L99.8528 28.959L104.189 26.6809L108.536 28.959L107.707 24.1245L111.22 20.7044L106.363 19.9972L104.189 15.5975L102.021 19.9972Z" fill="#5C3728"/>
<mask id="mask2_3_19939" style="mask-type:luminance" maskUnits="userSpaceOnUse" x="4" y="-1" width="202" height="108">
<path d="M107.666 0.254762C106.971 0.79386 106.234 1.00257 105.336 0.996775C100.884 0.938808 96.4317 0.904025 91.9798 0.921415C90.3799 0.921415 88.7862 0.921415 87.1921 0.921415C83.6851 0.921415 80.1834 0.921396 76.6763 0.956176C69.8188 1.03153 62.9558 0.996775 56.0983 0.996775C52.3014 0.996775 48.5104 0.979353 44.7135 0.979353C35.9257 0.973556 27.1378 0.973607 18.3557 0.973607C16.2341 0.973607 14.1005 0.9852 11.9731 0.973607C11.6311 0.973607 11.2542 0.996799 11.1905 1.36199C11.0282 2.34744 10.5587 3.26912 10.5529 4.27196C10.5471 4.81685 10.3731 4.89798 9.89202 4.88059C9.03989 4.8574 8.18825 4.86317 7.33613 4.86317C6.73326 4.86896 6.1302 4.869 5.53313 4.85741C4.97085 4.85741 4.57677 5.12989 4.47243 5.62261C4.37388 6.05737 4.35037 6.54427 4.57644 7.01961C4.79092 7.45436 4.9358 7.94703 4.97058 8.42236C5.03435 9.06 5.27263 9.63974 5.45813 10.231C5.77695 11.2338 6.21108 12.2019 6.11833 13.3033C6.09514 13.6279 6.19949 13.9583 6.26905 14.2887C6.37339 14.7698 6.65753 15.1872 6.65753 15.7089C6.63434 17.0132 6.652 18.3116 6.64621 19.6159C6.64621 19.7724 6.63483 19.9347 6.57686 20.0855C6.27543 20.8159 6.08382 21.5578 6.10701 22.3635C6.1128 22.8099 6.04334 23.2331 5.92161 23.6853C5.79988 24.1664 5.49852 24.6359 5.55649 25.1692C5.77096 26.9952 5.2898 28.6704 4.50144 30.2993C4.26957 30.7978 4.32147 31.4355 4.51276 31.9804C4.791 32.763 5.05234 33.5339 5.00596 34.3744C4.97118 34.7802 5.08136 35.1628 5.1857 35.5628C5.31902 36.0671 5.5736 36.5598 5.56781 37.1105C5.55042 38.3046 5.55649 39.4929 5.55649 40.6813C5.55649 40.9305 5.49258 41.1567 5.41142 41.4001C5.13898 42.229 4.82574 43.0058 5.48077 43.9158C6.04885 44.6926 6.76237 45.4172 7.02902 46.4258C7.19713 47.0461 7.11595 47.6374 7.15073 48.2518C7.19131 48.8489 7.20842 49.446 7.73593 49.8517C8.03736 50.4488 8.71571 50.5242 9.17945 50.8894C9.75913 50.7386 10.3389 50.8256 10.9244 50.8662C10.5534 51.1966 10.2286 51.6893 9.66629 51.1038C9.55035 50.9879 9.34176 50.9647 9.17945 50.8894C9.42292 51.3415 9.86313 51.5734 10.2805 51.7415C10.6921 51.898 10.9823 52.014 10.9591 52.4951C10.9301 52.953 11.4806 53.0748 11.5096 53.4805C11.5212 53.5733 11.4286 53.7066 11.3532 53.7646C10.9996 54.0022 11.0631 54.3442 11.0631 54.6862C11.0573 55.0978 11.3241 55.4108 11.3879 55.776C11.5908 56.8136 12.0606 57.6542 12.8258 58.373C13.4518 58.9526 14.2572 59.2193 14.9238 59.7294C15.1847 60.0019 15.2487 60.3149 15.1849 60.7033C15.0516 61.4916 15.1323 62.2452 15.8395 62.7843C16.4771 63.706 17.1152 64.6161 17.7529 65.5319C17.6659 65.9319 18.0017 66.1928 18.0713 66.5464C18.2626 67.4623 19.3698 68.0188 20.2451 67.671C21.6595 67.1029 22.6455 67.3058 23.602 68.3724C23.7353 68.5173 23.8275 68.7086 23.9551 68.8593C24.1058 69.039 24.3149 69.1839 24.541 68.9868C24.8888 68.6622 25.2424 68.8071 25.596 68.9231L25.6017 68.9462L25.6187 68.952C25.6361 69.2013 25.8392 69.2361 26.0305 69.3172C26.7609 69.6302 27.213 70.3433 27.4797 70.9345C27.9376 71.9664 28.0997 73.1083 29.0909 73.8734C29.7923 74.4067 30.1464 75.1487 30.0653 76.0646C30.0247 76.5921 30.3026 76.7602 30.8069 76.7892C32.4821 76.8762 34.1517 76.8819 35.8153 76.8588C36.0008 76.8588 36.1924 76.8645 36.3779 76.8703C36.9576 76.8993 37.5371 76.9168 38.1052 76.6443C38.3602 76.5284 38.7136 76.5979 38.9918 76.8472C39.7048 77.45 40.372 78.1225 41.4444 78.1167C42.0009 78.1167 42.447 78.6268 42.9629 78.7891C44.7135 79.3224 46.3307 80.1919 48.0987 80.6615C49.2117 80.9629 50.2435 81.5194 51.4203 81.5715C51.542 81.9309 51.8086 81.8962 52.0578 81.8614C52.139 81.8498 52.2147 81.8382 52.2843 81.8382C55.1421 81.8614 57.9937 81.8555 60.8457 81.8555C61.7731 81.8555 61.8197 81.8208 61.866 80.9107C61.8834 80.4006 62.0569 80.2035 62.6076 80.2267C63.8365 80.2731 65.0716 80.3021 66.3063 80.2267C67.4888 80.1456 68.3411 80.5919 69.1063 81.444C69.8715 82.2903 70.677 83.1135 71.6219 83.7511C71.7088 83.8149 71.8014 83.8787 71.8999 83.9366C72.2999 84.2091 73.0192 84.7308 73.3902 85.2814C73.4481 85.409 73.5117 85.5308 73.5812 85.6525C73.7609 85.9713 73.9465 86.2959 74.0624 86.6553C74.1841 87.0437 74.0858 87.4494 74.2945 87.832C74.8916 88.9102 75.8071 89.6696 76.8447 90.2145C78.6533 91.1651 79.9114 91.1536 80.6998 89.5073C81.0186 88.8291 81.407 88.5972 81.9983 88.3886C82.2707 88.2958 82.5428 88.3827 82.7979 88.2668C84.0094 87.7393 85.0648 87.9712 86.0097 88.8987C87.3082 90.1739 88.5255 91.4608 89.0588 93.2926C89.366 94.3766 90.0557 95.2982 90.9368 96.0866C91.8817 96.9271 92.5305 97.9589 92.6464 99.298C92.6754 99.6748 92.8093 100.144 93.0759 100.533C94.5135 102.596 96.6522 103.043 98.9477 103.066C99.4752 103.072 99.8401 102.614 99.8633 101.988C99.9155 100.707 99.6494 99.3966 100.142 98.1445C100.444 97.3735 100.287 96.3764 101.156 95.8721C101.753 95.5243 102.246 95.0606 102.716 94.5679C103.284 93.9708 103.852 93.4317 104.733 93.2751C105.116 93.2056 105.475 93.0143 105.892 92.9737C106.275 92.9331 106.559 92.6027 106.559 92.2028C106.547 91.6347 106.872 91.3449 107.295 91.084C107.579 90.9043 107.881 90.7304 108.142 90.5217C108.779 90.0406 109.394 89.6058 110.286 89.658C110.762 89.687 111.289 89.4899 111.765 89.3102C112.692 88.9392 113.73 88.945 114.57 89.2174C115.677 89.5768 116.755 89.716 117.88 89.687C119.028 89.6465 120.17 89.5827 121.092 90.4696C121.155 90.5333 121.306 90.5101 121.41 90.5565C122.187 90.8985 123.022 90.7188 123.822 90.8405C124.164 90.8869 124.459 91.1999 124.807 91.0434C125.932 90.5101 127.022 89.8725 127.404 88.6204C127.671 87.7625 128.25 87.3972 128.981 87.2291C129.34 87.1364 129.699 87.1364 129.954 86.8176C130.059 86.6901 130.215 86.6611 130.383 86.6669C132.343 86.719 134.29 86.5625 136.232 86.3713C136.679 86.3249 137.125 86.4234 137.554 86.1452C137.769 86.0061 138.134 85.9945 138.383 86.2321C139.461 87.2581 140.945 87.7625 141.907 88.945C142.047 89.1189 142.255 89.1248 142.464 89.1132C143.478 89.0262 144.261 88.3653 145.136 87.9537C146.012 87.548 146.266 87.4958 147.02 88.0929C147.333 88.3421 147.466 88.7016 147.686 89.0088C148.411 90.058 149.229 91.0376 150.15 91.9245C150.382 92.1506 150.574 92.3825 150.562 92.7419C150.51 94.249 150.776 95.7446 150.661 97.2517C150.585 98.1908 150.962 98.898 151.501 99.5299C151.501 99.5299 154.822 105.541 155.982 106.561C155.993 106.706 156.22 106.909 156.359 106.921C156.515 106.938 156.672 106.955 156.822 106.967C157.298 107.013 157.773 107.037 158.237 106.851C158.48 106.764 158.666 106.642 158.822 106.498V106.492C159.431 105.941 159.53 105.066 159.872 104.353C160.173 103.721 160.132 103.025 160.237 102.364C160.3 101.947 160.683 101.733 160.701 101.263C160.73 100.695 160.614 100.214 160.411 99.756C160.254 99.414 160.057 99.0835 159.826 98.7647C159.402 98.1444 158.817 97.5938 158.741 96.7938C158.678 96.1504 158.643 95.507 158.533 94.8577C158.254 93.1477 157.82 91.5593 156.904 90.0522C155.965 88.4928 155.987 86.6263 155.715 84.8757C155.512 83.5946 156.069 82.4758 156.44 81.3107C156.596 81.2991 156.712 81.189 156.724 81.0789C156.817 80.1398 157.524 79.5369 157.976 78.8007C158.242 78.3833 158.602 77.937 159.066 77.7863C159.75 77.5602 160.33 77.2124 160.852 76.7545C161.553 76.1284 162.434 75.5661 162.805 74.7719C163.297 73.7227 164.103 73.0735 164.915 72.3837C165.425 71.9606 165.998 71.7518 166.677 71.8272C167.117 71.8736 167.413 71.5722 167.697 71.2823C168.196 70.8592 168.66 70.4128 168.793 69.7288C168.845 69.4679 169.036 69.2709 169.274 69.1839C170.074 68.9173 170.543 68.2274 171.071 67.6535C171.465 67.2246 171.795 66.6913 171.807 66.042C171.824 65.1146 171.83 65.1145 172.746 65.1145C172.885 65.1145 173.024 65.1145 173.158 65.1145C173.761 65.1319 174.051 64.8712 174.016 64.2509C173.975 63.4741 173.993 62.7147 174.503 62.0597C174.567 61.9785 174.566 61.8452 174.566 61.7351C174.566 60.367 174.636 59.0106 174.839 57.6599C174.926 57.1035 175.1 56.6397 175.407 56.1702C175.906 55.4108 176.613 54.7848 176.856 53.8631C176.926 53.5848 177.065 53.2834 177.267 53.0806C177.737 52.6052 177.784 52.0314 177.743 51.4343C177.714 50.9416 177.824 50.5416 178.224 50.2285C178.328 50.1474 178.45 50.0373 178.491 49.9213C178.833 48.8431 179.65 48.0895 180.293 47.22C180.844 46.4781 181.465 45.8114 181.297 44.7622C181.233 44.3449 181.297 43.8927 181.291 43.4638C181.274 43.0058 181.499 42.7508 181.893 42.5769C182.85 42.1421 183.975 42.3044 184.896 41.7421C184.914 41.7363 184.949 41.7363 184.978 41.7363C184.995 41.7363 185.012 41.7421 185.041 41.7363C185.876 41.5334 186.722 41.3305 187.302 40.6175C187.598 40.2697 187.922 39.9915 188.078 39.4756C188.148 39.2205 188.438 39.2263 188.745 39.2321C188.977 39.2379 189.226 39.2437 189.406 39.1278C189.614 38.9945 189.824 38.8263 189.957 38.6234C190.467 37.8989 191.411 37.4699 191.429 36.4207C191.446 35.5569 191.272 34.6469 192.037 33.9629C192.014 33.9745 191.986 33.9976 191.962 34.0092L192.409 33.4585C192.577 33.3484 192.774 33.2034 192.774 32.9948C192.786 32.0499 192.988 31.1862 193.296 30.2645C193.759 28.9197 194.386 28.0038 195.696 27.7255C195.8 27.7081 195.91 27.6386 195.997 27.5575C196.351 27.1981 196.843 27.059 197.278 26.9836C197.788 26.8851 198.147 26.63 198.397 26.2822C198.93 25.5286 199.66 25.2619 200.507 25.2619C201.382 25.2561 202.031 24.8388 202.599 24.2649C202.814 24.0446 203.034 23.9519 203.347 23.8823C204.553 23.6273 205.411 22.9085 205.295 21.6854C205.243 21.1115 204.819 20.6709 204.472 20.2709C203.932 19.6507 203.625 18.8914 203.115 18.2653C202.472 17.4654 202.559 16.4973 202.524 15.5466C202.472 13.9409 202.79 12.3236 202.269 10.7469C201.973 9.83097 200.883 9.21073 200.066 9.67447C199.695 9.88895 199.353 9.91796 198.976 9.87738C198.321 9.28031 197.724 9.23975 197.214 9.86579C196.594 10.6426 195.869 11.3324 195.435 12.2541C195.197 12.741 195.365 13.3206 195.011 13.7844C194.768 14.109 194.606 14.48 194.455 14.8626C194.148 15.5988 194.102 16.4393 193.736 17.1175C192.931 18.5957 191.945 19.9058 190.194 20.526C189.307 20.8391 188.467 21.0535 187.533 21.0419C185.893 21.0361 184.264 21.0361 182.635 21.0361C181.406 21.0361 180.19 21.0361 178.966 21.0361C178.335 21.0303 177.76 21.2332 177.256 21.5231C175.32 22.636 173.9 24.3403 172.526 26.0098C171.592 27.1401 170.729 27.9401 169.152 27.7836C167.906 27.656 166.637 27.7429 165.385 27.7603C164.776 27.7661 164.265 27.998 163.981 28.5835C163.442 28.9603 163.274 29.5747 163.495 30.1022C163.744 30.7051 163.668 31.279 163.703 31.876C163.071 32.2064 162.422 32.5137 161.813 32.873C160.619 33.5803 159.297 33.8701 157.976 34.2295C157.431 34.3803 156.84 34.3744 156.318 34.6643C154.99 35.3889 153.646 36.0961 152.295 36.7859C151.93 36.9714 151.467 37.2322 151.13 37.1452C150.377 36.954 149.82 36.3917 149.623 35.6265C149.449 34.9773 149.484 34.3223 150.069 33.8121C150.446 33.4817 150.777 33.0992 151.142 32.7572C151.426 32.4847 151.722 32.1485 151.739 31.7891C151.774 30.5776 152.376 29.5341 152.655 28.3864C152.979 27.0125 152.84 25.7372 152.359 24.4388C152.057 23.6272 151.687 22.8157 151.768 21.9114C151.93 20.1434 150.834 19.1464 149.548 18.2595C148.742 17.6914 147.82 17.245 147.797 16.0335C147.797 15.7263 147.513 15.5408 147.165 15.535C146.608 15.5176 146.191 15.1988 145.808 14.8742C145.339 14.48 144.974 13.9757 144.394 13.6974C144.122 13.5699 143.838 13.3033 143.727 13.025C143.217 11.8541 142.267 11.2222 141.223 10.5672C139.971 9.79625 138.702 9.03681 137.438 8.27164C136.099 7.4485 134.743 6.61378 133.427 5.76165C131.891 4.75302 130.534 4.71246 128.917 5.40227C128.059 5.76167 127.091 6.1037 126.106 5.9298C125.167 5.76749 124.274 5.4371 123.3 5.32117C122.344 5.20523 121.439 5.04289 120.506 5.36751C120.303 5.43707 120.007 5.43709 119.834 5.33275C118.674 4.64874 117.335 4.28352 116.292 3.36763C115.689 2.84013 114.947 2.41698 114.118 2.69522C113.434 2.92709 112.796 3.06041 112.066 2.94447C111.66 2.87491 111.33 2.63724 110.901 2.63145C109.869 2.61406 108.936 1.72715 108.779 0.695333C108.727 0.23739 108.524 -0.000242722 108.24 -0.000242722C108.078 -0.000242722 107.881 0.0808601 107.666 0.254762Z" fill="white"/>
</mask>
<g mask="url(#mask2_3_19939)">
<path d="M210.13 99.0658H1.62073V106.66H210.13V99.0658ZM210.13 84.7247H1.62073V92.3184H210.13V84.7247ZM210.13 70.3893H1.62073V77.983H210.13V70.3893ZM210.13 56.0481H132.331V63.6419H210.13V56.0481ZM210.13 41.7012H132.331V49.295H210.13V41.7012ZM210.13 27.3601H132.331V34.9538H210.13V27.3601ZM210.13 13.0188H132.331V20.6126H210.13V13.0188ZM210.13 6.27151H132.331V-1.32222H210.13V6.27151Z" fill="#5C3728"/>
</g>
</svg>
